<svg width="20" height="20" viewBox="0 0 20 20" fill="none" xmlns="http://www.w3.org/2000/svg">
<g clip-path="url(#clip0_754_16798)">
<path d="M10 20C15.5417 20 20 15.5417 20 10C20 4.4583 15.5417 0 10 0C4.4583 0 0 4.4583 0 10C0 15.5417 4.4583 20 10 20Z" fill="#2775CA"/>
<path d="M12.7493 11.583C12.7493 10.1247 11.8743 9.62471 10.1243 9.41641C8.87432 9.24971 8.62432 8.91641 8.62432 8.33301C8.62432 7.74961 9.04102 7.37471 9.87432 7.37471C10.6243 7.37471 11.041 7.62471 11.2493 8.24971C11.291 8.37471 11.416 8.45801 11.541 8.45801H12.2076C12.3743 8.45801 12.4993 8.33301 12.4993 8.16641V8.12471C12.3326 7.20801 11.5826 6.49971 10.6243 6.41641V5.41641C10.6243 5.24971 10.4993 5.12471 10.291 5.08301H9.66602C9.49932 5.08301 9.37432 5.20801 9.33262 5.41641V6.37471C8.08262 6.54141 7.29102 7.37471 7.29102 8.41641C7.29102 9.79141 8.12432 10.333 9.87432 10.5414C11.041 10.7497 11.416 10.9997 11.416 11.6664C11.416 12.3331 10.8326 12.7914 10.041 12.7914C8.95762 12.7914 8.58262 12.333 8.45762 11.708C8.41602 11.5414 8.29102 11.458 8.16602 11.458H7.45762C7.29102 11.458 7.16602 11.583 7.16602 11.7497V11.7914C7.33262 12.833 7.99932 13.583 9.37432 13.7914V14.7914C9.37432 14.958 9.49932 15.083 9.70762 15.1247H10.3326C10.4993 15.1247 10.6243 14.9997 10.666 14.7914V13.7914C11.916 13.583 12.7493 12.708 12.7493 11.583Z" fill="white"/>
<path d="M7.87581 15.9586C4.62581 14.792 2.95911 11.167 4.16751 7.95859C4.79251 6.20859 6.16751 4.87529 7.87581 4.25029C8.04251 4.16699 8.12581 4.04199 8.12581 3.83359V3.25029C8.12581 3.08359 8.04251 2.95859 7.87581 2.91699C7.83411 2.91699 7.75081 2.91699 7.70911 2.95859C3.75081 4.20859 1.58411 8.41699 2.83411 12.3753C3.58411 14.7086 5.37581 16.5003 7.70911 17.2503C7.87581 17.3336 8.04251 17.2503 8.08411 17.0836C8.12581 17.042 8.12581 17.0003 8.12581 16.917V16.3336C8.12581 16.2086 8.00081 16.042 7.87581 15.9586ZM12.2925 2.95859C12.1258 2.87529 11.9591 2.95859 11.9175 3.12529C11.8758 3.16699 11.8758 3.20859 11.8758 3.29199V3.87529C11.8758 4.04199 12.0008 4.20859 12.1258 4.29199C15.3758 5.45859 17.0425 9.08359 15.8341 12.292C15.2091 14.042 13.8341 15.3753 12.1258 16.0003C11.9591 16.0836 11.8758 16.2086 11.8758 16.417V17.0003C11.8758 17.167 11.9591 17.292 12.1258 17.3336C12.1675 17.3336 12.2508 17.3336 12.2925 17.292C16.2508 16.042 18.4175 11.8336 17.1675 7.87529C16.4175 5.50029 14.5841 3.70859 12.2925 2.95859Z" fill="white"/>
</g>
<defs>
<clipPath id="clip0_754_16798">
<rect width="20" height="20" fill="white"/>
</clipPath>
</defs>
</svg>
