<svg width="18" height="18" viewBox="0 0 18 18" fill="none" xmlns="http://www.w3.org/2000/svg">
<path fill-rule="evenodd" clip-rule="evenodd" d="M9 16C12.866 16 16 12.866 16 9C16 5.13401 12.866 2 9 2C5.13401 2 2 5.13401 2 9C2 12.866 5.13401 16 9 16ZM9 18C13.9706 18 18 13.9706 18 9C18 4.02944 13.9706 0 9 0C4.02944 0 0 4.02944 0 9C0 13.9706 4.02944 18 9 18ZM9 8C9.55229 8 10 8.44771 10 9V12C10 12.5523 9.55229 13 9 13C8.44772 13 8 12.5523 8 12V9C8 8.44771 8.44771 8 9 8ZM9 5C8.44771 5 8 5.44772 8 6C8 6.55228 8.44771 7 9 7C9.55229 7 10 6.55228 10 6C10 5.44772 9.55228 5 9 5Z" fill="#111111" fill-opacity="0.4"/>
</svg>
