<svg width="53" height="52" viewBox="0 0 53 52" fill="none" xmlns="http://www.w3.org/2000/svg">
<g filter="url(#filter0_d_772_1904)">
<path d="M4.80988 28.0004C3.38054 25.525 3.38054 22.475 4.80988 19.9996L8.50053 13.608L12.1905 7.21598C13.6196 4.74045 16.2609 3.21548 19.1193 3.21563L26.5 3.216L33.8807 3.21563C36.7391 3.21548 39.3804 4.74044 40.8095 7.21598L44.4995 13.608L48.1901 19.9996C49.6195 22.475 49.6195 25.525 48.1901 28.0004L44.4995 34.392L40.8095 40.784C39.3804 43.2596 36.7391 44.7845 33.8807 44.7844L26.5 44.784L19.1193 44.7844C16.2609 44.7845 13.6196 43.2596 12.1905 40.784L8.50053 34.392L4.80988 28.0004Z" fill="white"/>
<path d="M4.37688 19.7496C2.85821 22.3797 2.85821 25.6203 4.37688 28.2504L8.0675 34.642L8.06753 34.642L11.7575 41.034C13.2759 43.6643 16.0823 45.2845 19.1194 45.2844L26.5 45.284H26.5L33.8806 45.2844C36.9177 45.2845 39.7241 43.6643 41.2425 41.034L44.9325 34.642L44.9325 34.642L48.6231 28.2504C50.1418 25.6203 50.1418 22.3797 48.6231 19.7496L44.9325 13.358L44.9325 13.358L41.2425 6.966C39.7241 4.33575 36.9177 2.71547 33.8806 2.71563L26.5 2.716L19.1194 2.71563C16.0823 2.71547 13.2759 4.33575 11.7575 6.966L8.06753 13.358L8.0675 13.358L4.37688 19.7496Z" stroke="#D9D9D9"/>
</g>
<path fill-rule="evenodd" clip-rule="evenodd" d="M27.6858 22.4409H31.834L28.7229 26.6319L25.3155 31.0178V25.5598H21.1673L24.5959 21.2713L27.6858 16.9829V22.4409ZM23.5285 20.4821L26.5992 16.2204C26.9354 15.7538 27.5387 15.5553 28.0914 15.7294C28.644 15.9035 29.0192 16.4103 29.0192 16.9829V21.1251H31.834C32.3363 21.1251 32.796 21.4037 33.0232 21.8458C33.2504 22.288 33.2064 22.8186 32.9096 23.2185L29.7985 27.4094C29.7928 27.4172 29.7869 27.4248 29.781 27.4324L26.3736 31.8184C26.026 32.2658 25.4282 32.4449 24.8872 32.2638C24.3461 32.0827 23.9821 31.5816 23.9821 31.0178V26.8755H21.1673C20.6564 26.8755 20.1904 26.5874 19.9676 26.1338C19.7447 25.6801 19.8041 25.1406 20.1206 24.7448L23.5285 20.4821Z" fill="#111111"/>
<path fill-rule="evenodd" clip-rule="evenodd" d="M27.6858 22.9409C27.4097 22.9409 27.1858 22.717 27.1858 22.4409V18.5321L25.0016 21.5636C24.9967 21.5704 24.9916 21.577 24.9864 21.5835L22.2072 25.0598H25.3155C25.5916 25.0598 25.8155 25.2836 25.8155 25.5598V29.5592L28.3247 26.3295L30.8401 22.9409H27.6858ZM31.834 22.4409L28.7229 26.6319L25.3155 31.0178V25.5598H21.1673L24.5959 21.2713L27.6858 16.9829V22.4409H31.834ZM23.1302 20.1796L26.1935 15.9281C26.6571 15.2847 27.4854 15.0143 28.2416 15.2525C28.999 15.4911 29.5192 16.1884 29.5192 16.9829V20.6251H31.834C32.5212 20.6251 33.1539 21.0063 33.4679 21.6173C33.7824 22.2293 33.7212 22.964 33.3111 23.5165L30.2 27.7075C30.1921 27.7181 30.184 27.7287 30.1759 27.7392L26.7685 32.1251C26.2894 32.7418 25.4689 32.9858 24.7284 32.738L24.8872 32.2638C25.4282 32.4449 26.026 32.2658 26.3736 31.8184L29.781 27.4324C29.7869 27.4248 29.7928 27.4172 29.7985 27.4094L32.9096 23.2185C33.2064 22.8186 33.2504 22.288 33.0232 21.8458C32.796 21.4037 32.3363 21.1251 31.834 21.1251H29.0192V16.9829C29.0192 16.4103 28.644 15.9035 28.0914 15.7294C27.5387 15.5553 26.9354 15.7538 26.5992 16.2204L23.5285 20.4821L20.1206 24.7448C19.8041 25.1406 19.7447 25.6801 19.9676 26.1338C20.1904 26.5874 20.6564 26.8755 21.1673 26.8755H23.9821V31.0178C23.9821 31.5816 24.3461 32.0827 24.8872 32.2638L24.7284 32.738C23.9869 32.4897 23.4821 31.8001 23.4821 31.0178V27.3755H21.1673C20.4684 27.3755 19.8269 26.9814 19.5188 26.3542C19.2102 25.7261 19.293 24.9792 19.73 24.4325L23.1302 20.1796Z" fill="#111111"/>
<defs>
<filter id="filter0_d_772_1904" x="2.73828" y="2.21582" width="49.5234" height="45.5684" filterUnits="userSpaceOnUse" color-interpolation-filters="sRGB">
<feFlood flood-opacity="0" result="BackgroundImageFix"/>
<feColorMatrix in="SourceAlpha" type="matrix" values="0 0 0 0 0 0 0 0 0 0 0 0 0 0 0 0 0 0 127 0" result="hardAlpha"/>
<feOffset dx="2" dy="2"/>
<feComposite in2="hardAlpha" operator="out"/>
<feColorMatrix type="matrix" values="0 0 0 0 0.85098 0 0 0 0 0.85098 0 0 0 0 0.85098 0 0 0 1 0"/>
<feBlend mode="normal" in2="BackgroundImageFix" result="effect1_dropShadow_772_1904"/>
<feBlend mode="normal" in="SourceGraphic" in2="effect1_dropShadow_772_1904" result="shape"/>
</filter>
</defs>
</svg>
