<svg width="52" height="52" viewBox="0 0 52 52" fill="none" xmlns="http://www.w3.org/2000/svg">
<rect width="52" height="52" fill="#D6EFFB"/>
<path d="M35 21.5C35 23.9853 30.9706 26 26 26M35 21.5C35 19.0147 30.9706 17 26 17C21.0294 17 17 19.0147 17 21.5M35 21.5V27C35 29.2091 30.9706 31 26 31M26 26C21.0294 26 17 23.9853 17 21.5M26 26V31M17 21.5V27C17 29.2091 21.0294 31 26 31M21 30.3264V25.2422M31 30.3264V25.2422M30 21.5C30 22.3284 28.2091 23 26 23C23.7909 23 22 22.3284 22 21.5C22 20.6716 23.7909 20 26 20C28.2091 20 30 20.6716 30 21.5Z" stroke="#009EE7" stroke-width="2" stroke-linecap="round" stroke-linejoin="round"/>
</svg>
