<svg width="20" height="20" viewBox="0 0 20 20" fill="none" xmlns="http://www.w3.org/2000/svg">
<path d="M6.66536 6.66732H5.9987C5.06528 6.66732 4.59857 6.66732 4.24205 6.84897C3.92844 7.00876 3.67348 7.26373 3.51369 7.57733C3.33203 7.93385 3.33203 8.40056 3.33203 9.33398V14.0007C3.33203 14.9341 3.33203 15.4008 3.51369 15.7573C3.67348 16.0709 3.92844 16.3259 4.24205 16.4857C4.59857 16.6673 5.06528 16.6673 5.9987 16.6673H10.6654C11.5988 16.6673 12.0655 16.6673 12.422 16.4857C12.7356 16.3259 12.9906 16.0709 13.1504 15.7573C13.332 15.4008 13.332 14.9341 13.332 14.0007V13.334M9.33203 13.334H13.9987C14.9321 13.334 15.3988 13.334 15.7553 13.1523C16.069 12.9925 16.3239 12.7376 16.4837 12.424C16.6654 12.0674 16.6654 11.6007 16.6654 10.6673V6.00065C16.6654 5.06723 16.6654 4.60052 16.4837 4.244C16.3239 3.9304 16.069 3.67543 15.7553 3.51564C15.3988 3.33398 14.9321 3.33398 13.9987 3.33398H9.33203C8.39861 3.33398 7.9319 3.33398 7.57538 3.51564C7.26178 3.67543 7.00681 3.9304 6.84702 4.244C6.66536 4.60052 6.66536 5.06723 6.66536 6.00065V10.6673C6.66536 11.6007 6.66536 12.0674 6.84702 12.424C7.00681 12.7376 7.26178 12.9925 7.57538 13.1523C7.9319 13.334 8.39861 13.334 9.33203 13.334Z" stroke="#111111" stroke-opacity="0.4" stroke-width="2" stroke-linecap="round" stroke-linejoin="round"/>
</svg>
