<svg width="40" height="40" viewBox="0 0 40 40" fill="none" xmlns="http://www.w3.org/2000/svg">
<g filter="url(#filter0_d_471_41971)">
<path d="M4.30987 22.0004C2.88054 19.525 2.88054 16.475 4.30987 13.9996L6.5004 10.206L8.69053 6.41213C10.1196 3.9366 12.7609 2.41163 15.6193 2.41178L20 2.412L24.3807 2.41178C27.2391 2.41163 29.8804 3.9366 31.3095 6.41213L33.4996 10.206L35.6901 13.9996C37.1195 16.475 37.1195 19.525 35.6901 22.0004L33.4996 25.794L31.3095 29.5879C29.8804 32.0634 27.2391 33.5884 24.3807 33.5882L20 33.588L15.6193 33.5882C12.7609 33.5884 10.1196 32.0634 8.69053 29.5879L6.5004 25.794L4.30987 22.0004Z" fill="white"/>
<path d="M3.87687 13.7496C2.35821 16.3797 2.35821 19.6203 3.87687 22.2504L6.06737 26.044L6.0674 26.044L8.25751 29.8378C9.7759 32.4681 12.5823 34.0884 15.6194 34.0882L20 34.088H20L24.3806 34.0882C27.4177 34.0884 30.2241 32.4681 31.7425 29.8378L33.9326 26.044L33.9326 26.044L36.1231 22.2504C37.6418 19.6203 37.6418 16.3797 36.1231 13.7496L33.9326 9.95602L33.9326 9.95598L31.7425 6.16215C30.2241 3.5319 27.4177 1.91162 24.3806 1.91178L20 1.912L15.6194 1.91178C12.5823 1.91162 9.77591 3.5319 8.25751 6.16215L6.0674 9.95598L6.06737 9.95602L3.87687 13.7496Z" stroke="#D9D9D9"/>
</g>
<path fill-rule="evenodd" clip-rule="evenodd" d="M15.5 9C14.1193 9 13 10.1193 13 11.5V13.1707C11.8348 13.5825 11 14.6938 11 16V23C11 24.6569 12.3431 26 14 26H26C27.6569 26 29 24.6569 29 23V16C29 14.6938 28.1652 13.5825 27 13.1707V11.5C27 10.1193 25.8807 9 24.5 9H15.5ZM25 13V11.5C25 11.2239 24.7761 11 24.5 11H15.5C15.2239 11 15 11.2239 15 11.5V13H25ZM13 16C13 15.4477 13.4477 15 14 15H26C26.5523 15 27 15.4477 27 16V23C27 23.5523 26.5523 24 26 24H14C13.4477 24 13 23.5523 13 23V16Z" fill="#111111"/>
<defs>
<filter id="filter0_d_471_41971" x="2.23779" y="1.41211" width="37.5244" height="35.1758" filterUnits="userSpaceOnUse" color-interpolation-filters="sRGB">
<feFlood flood-opacity="0" result="BackgroundImageFix"/>
<feColorMatrix in="SourceAlpha" type="matrix" values="0 0 0 0 0 0 0 0 0 0 0 0 0 0 0 0 0 0 127 0" result="hardAlpha"/>
<feOffset dx="2" dy="2"/>
<feComposite in2="hardAlpha" operator="out"/>
<feColorMatrix type="matrix" values="0 0 0 0 0.85098 0 0 0 0 0.85098 0 0 0 0 0.85098 0 0 0 1 0"/>
<feBlend mode="normal" in2="BackgroundImageFix" result="effect1_dropShadow_471_41971"/>
<feBlend mode="normal" in="SourceGraphic" in2="effect1_dropShadow_471_41971" result="shape"/>
</filter>
</defs>
</svg>
