<svg width="20" height="20" viewBox="0 0 20 20" fill="none" xmlns="http://www.w3.org/2000/svg">
<path fill-rule="evenodd" clip-rule="evenodd" d="M18.1462 13.0175C18.3966 12.7672 18.3966 12.3613 18.1462 12.111L13.018 6.98278C12.7677 6.73245 12.3618 6.73245 12.1115 6.98278C11.8611 7.23312 11.8611 7.63899 12.1115 7.88933L16.1454 11.9232L7.43655 11.9232C4.95835 11.9232 2.94937 9.91426 2.94937 7.43606L2.94937 2.30785C2.94937 1.95382 2.66237 1.66683 2.30834 1.66683C1.95431 1.66683 1.66732 1.95382 1.66732 2.30785L1.66732 7.43606C1.66732 10.6223 4.25029 13.2053 7.43655 13.2053L16.1454 13.2053L12.1115 17.2392C11.8611 17.4895 11.8611 17.8954 12.1115 18.1457C12.3618 18.3961 12.7677 18.3961 13.018 18.1457L18.1462 13.0175Z" fill="#111111" fill-opacity="0.4"/>
<path d="M11.9347 18.3225L11.9347 18.3225C11.5867 17.9746 11.5867 17.4104 11.9347 17.0624L15.5418 13.4553L7.43655 13.4553C4.11222 13.4553 1.41732 10.7604 1.41732 7.43606L1.41732 2.30785C1.41732 1.81575 1.81624 1.41683 2.30834 1.41683C2.80044 1.41683 3.19937 1.81575 3.19937 2.30785L3.19937 7.43606C3.19937 9.77619 5.09642 11.6732 7.43655 11.6732L15.5418 11.6732L11.9347 8.06611C11.5867 7.71814 11.5867 7.15397 11.9347 6.80601C12.2827 6.45804 12.8468 6.45804 13.1948 6.80601L18.323 11.9342C18.671 12.2822 18.671 12.8463 18.323 13.1943L13.1948 18.3225C12.8468 18.6705 12.2827 18.6705 11.9347 18.3225Z" stroke="#111111" stroke-opacity="0.4" stroke-width="0.5" stroke-linecap="round" stroke-linejoin="round"/>
</svg>
