<svg width="53" height="52" viewBox="0 0 53 52" fill="none" xmlns="http://www.w3.org/2000/svg">
<g filter="url(#filter0_d_445_99150)">
<path d="M4.80988 28.0004C3.38054 25.525 3.38054 22.475 4.80988 19.9996L8.50053 13.608L12.1905 7.21598C13.6196 4.74045 16.2609 3.21548 19.1193 3.21563L26.5 3.216L33.8807 3.21563C36.7391 3.21548 39.3804 4.74044 40.8095 7.21598L44.4995 13.608L48.1901 19.9996C49.6195 22.475 49.6195 25.525 48.1901 28.0004L44.4995 34.392L40.8095 40.784C39.3804 43.2596 36.7391 44.7845 33.8807 44.7844L26.5 44.784L19.1193 44.7844C16.2609 44.7845 13.6196 43.2596 12.1905 40.784L8.50053 34.392L4.80988 28.0004Z" fill="white"/>
<path d="M4.37688 19.7496C2.85821 22.3797 2.85821 25.6203 4.37688 28.2504L8.0675 34.642L8.06753 34.642L11.7575 41.034C13.2759 43.6643 16.0823 45.2845 19.1194 45.2844L26.5 45.284H26.5L33.8806 45.2844C36.9177 45.2845 39.7241 43.6643 41.2425 41.034L44.9325 34.642L44.9325 34.642L48.6231 28.2504C50.1418 25.6203 50.1418 22.3797 48.6231 19.7496L44.9325 13.358L44.9325 13.358L41.2425 6.966C39.7241 4.33575 36.9177 2.71547 33.8806 2.71563L26.5 2.716L19.1194 2.71563C16.0823 2.71547 13.2759 4.33575 11.7575 6.966L8.06753 13.358L8.0675 13.358L4.37688 19.7496Z" stroke="#D9D9D9"/>
</g>
<path fill-rule="evenodd" clip-rule="evenodd" d="M26.5007 16.9481C25.2299 16.9481 23.5236 17.0875 22.3302 17.2033C21.835 17.2513 21.4485 17.6436 21.4102 18.141C21.2915 19.6806 21.1243 22.1767 21.1243 23.9993C21.1243 25.822 21.2915 28.3181 21.4102 29.8577C21.4485 30.3551 21.835 30.7474 22.3302 30.7954C23.5236 30.9112 25.2299 31.0506 26.5007 31.0506C27.7714 31.0506 29.4777 30.9112 30.6711 30.7954C31.1663 30.7474 31.5528 30.3551 31.5911 29.8577C31.7098 28.3181 31.877 25.822 31.877 23.9993C31.877 23.4116 31.8596 22.7524 31.8319 22.0763H29.082L29.0813 21.4352L29.0813 20.7942H31.7681C31.6092 18.7628 30.024 17.1448 28.006 16.996V19.7258C28.006 20.3159 28.4875 20.7942 29.0813 20.7942L29.0813 21.4352L29.082 22.0763C27.7755 22.0763 26.7157 21.0239 26.7157 19.7258V16.9493C26.6427 16.9485 26.571 16.9481 26.5007 16.9481ZM27.3814 15.6833C27.0765 15.6723 26.7799 15.666 26.5007 15.666C25.1619 15.666 23.4014 15.8112 22.2048 15.9273C21.0816 16.0362 20.2094 16.9294 20.1236 18.0431C20.0049 19.5833 19.834 22.1228 19.834 23.9993C19.834 25.8759 20.0049 28.4154 20.1236 29.9556C20.2094 31.0693 21.0816 31.9625 22.2048 32.0714C23.4014 32.1875 25.1619 32.3327 26.5007 32.3327C27.8394 32.3327 29.5999 32.1875 30.7965 32.0714C31.9197 31.9625 32.7919 31.0693 32.8777 29.9556C32.9964 28.4154 33.1673 25.8759 33.1673 23.9993C33.1673 23.2093 33.1371 22.304 33.0934 21.4078C33.0933 21.4051 33.0932 21.4023 33.093 21.3996C33.0836 21.2068 33.0736 21.0144 33.0631 20.8238C32.913 18.091 30.7655 15.8555 27.9863 15.7102C27.7854 15.6997 27.5854 15.6906 27.3889 15.6835" fill="#111111"/>
<path fill-rule="evenodd" clip-rule="evenodd" d="M28.832 22.0633C28.9141 22.0719 28.9975 22.0763 29.082 22.0763H31.8319C31.8596 22.7524 31.877 23.4116 31.877 23.9993C31.877 25.822 31.7098 28.3181 31.5911 29.8577C31.5528 30.3551 31.1663 30.7474 30.6711 30.7954C29.4777 30.9112 27.7714 31.0506 26.5007 31.0506C25.2299 31.0506 23.5236 30.9112 22.3302 30.7954C21.835 30.7474 21.4485 30.3551 21.4102 29.8577C21.2915 28.3181 21.1243 25.822 21.1243 23.9993C21.1243 22.1767 21.2915 19.6806 21.4102 18.141C21.4485 17.6436 21.835 17.2513 22.3302 17.2033C23.4365 17.096 24.9835 16.9683 26.2157 16.9502C26.239 16.9499 26.2622 16.9496 26.2853 16.9493C26.3583 16.9485 26.4301 16.9481 26.5007 16.9481C26.571 16.9481 26.6427 16.9485 26.7157 16.9493V19.7258C26.7157 20.94 27.6429 21.9392 28.832 22.0633ZM28.8329 20.7656C28.9126 20.7843 28.9959 20.7942 29.0813 20.7942C29.0813 20.7942 29.0814 20.7942 29.0813 20.7942H31.7681C31.7548 20.6245 31.7316 20.4576 31.699 20.2942C31.3741 18.6673 30.1189 17.3877 28.506 17.0642C28.3428 17.0314 28.176 17.0085 28.006 16.996V19.7258C28.006 20.231 28.3588 20.6542 28.8329 20.7656ZM28.506 17.5757V19.7258C28.506 20.0367 28.7606 20.2942 29.0813 20.2942H31.1877C30.8794 18.9406 29.8376 17.8831 28.506 17.5757ZM26.2157 17.4503C25.0079 17.4684 23.4819 17.5939 22.3784 17.7009C22.1241 17.7256 21.9283 17.925 21.9087 18.1794C21.79 19.7189 21.6243 22.1979 21.6243 23.9993C21.6243 25.8008 21.79 28.2798 21.9087 29.8193C21.9283 30.0737 22.1241 30.2731 22.3784 30.2978C23.5707 30.4134 25.2561 30.5506 26.5007 30.5506C27.7452 30.5506 29.4306 30.4134 30.6229 30.2978C30.8772 30.2731 31.073 30.0737 31.0926 29.8193C31.2113 28.2798 31.377 25.8008 31.377 23.9993C31.377 23.5595 31.3671 23.0774 31.3502 22.5763H29.082C27.5026 22.5763 26.2157 21.3033 26.2157 19.7258V17.4503ZM27.6387 15.6935C27.5549 15.6898 27.4716 15.6865 27.3889 15.6835L27.3814 15.6833C27.2974 15.6802 27.2141 15.6776 27.1315 15.6753C27.0499 15.6731 26.969 15.6712 26.8891 15.6697C26.7566 15.6673 26.6269 15.666 26.5007 15.666C25.1619 15.666 23.4014 15.8112 22.2048 15.9273C21.0816 16.0362 20.2094 16.9294 20.1236 18.0431C20.0049 19.5833 19.834 22.1228 19.834 23.9993C19.834 25.8759 20.0049 28.4154 20.1236 29.9556C20.2094 31.0693 21.0816 31.9625 22.2048 32.0714C23.4014 32.1875 25.1619 32.3327 26.5007 32.3327C27.8394 32.3327 29.5999 32.1875 30.7965 32.0714C31.9197 31.9625 32.7919 31.0693 32.8777 29.9556C32.9964 28.4154 33.1673 25.8759 33.1673 23.9993C33.1673 23.2093 33.1371 22.304 33.0934 21.4078L33.093 21.3996C33.0836 21.2068 33.0736 21.0144 33.0631 20.8238C32.913 18.091 30.7655 15.8555 27.9863 15.7102C27.9511 15.7083 27.916 15.7065 27.8809 15.7048C27.7999 15.7008 27.7191 15.697 27.6387 15.6935ZM27.4031 15.1837C27.4044 15.1838 27.4057 15.1838 27.407 15.1839C27.6065 15.1911 27.8091 15.2002 28.0124 15.2108C31.0555 15.37 33.3987 17.8174 33.5624 20.7963C33.5729 20.988 33.583 21.1813 33.5924 21.3752M27.4031 15.1837C27.4019 15.1837 27.4006 15.1836 27.3993 15.1836C27.09 15.1725 26.7872 15.166 26.5007 15.166C25.1358 15.166 23.3544 15.3135 22.1566 15.4296C20.7921 15.5619 19.7296 16.6484 19.6251 18.0046C19.5063 19.5451 19.334 22.1016 19.334 23.9993C19.334 25.8971 19.5063 28.4536 19.6251 29.9941C19.7296 31.3503 20.7921 32.4368 22.1566 32.5691C23.3544 32.6852 25.1358 32.8327 26.5007 32.8327C27.8655 32.8327 29.6469 32.6852 30.8447 32.5691C32.2092 32.4368 33.2717 31.3503 33.3762 29.9941C33.495 28.4536 33.6673 25.8971 33.6673 23.9993C33.6673 23.1979 33.6367 22.2838 33.5929 21.3835M33.5929 21.3835L33.5924 21.3752L33.5929 21.3835Z" fill="#111111"/>
<defs>
<filter id="filter0_d_445_99150" x="2.73828" y="2.21484" width="49.5234" height="45.5703" filterUnits="userSpaceOnUse" color-interpolation-filters="sRGB">
<feFlood flood-opacity="0" result="BackgroundImageFix"/>
<feColorMatrix in="SourceAlpha" type="matrix" values="0 0 0 0 0 0 0 0 0 0 0 0 0 0 0 0 0 0 127 0" result="hardAlpha"/>
<feOffset dx="2" dy="2"/>
<feComposite in2="hardAlpha" operator="out"/>
<feColorMatrix type="matrix" values="0 0 0 0 0.85098 0 0 0 0 0.85098 0 0 0 0 0.85098 0 0 0 1 0"/>
<feBlend mode="normal" in2="BackgroundImageFix" result="effect1_dropShadow_445_99150"/>
<feBlend mode="normal" in="SourceGraphic" in2="effect1_dropShadow_445_99150" result="shape"/>
</filter>
</defs>
</svg>
