<svg width="20" height="20" viewBox="0 0 20 20" fill="none" xmlns="http://www.w3.org/2000/svg">
<path d="M2.5 4.1C2.5 3.53995 2.5 3.25992 2.60899 3.04601C2.70487 2.85785 2.85785 2.70487 3.04601 2.60899C3.25992 2.5 3.53995 2.5 4.1 2.5H15.9C16.4601 2.5 16.7401 2.5 16.954 2.60899C17.1422 2.70487 17.2951 2.85785 17.391 3.04601C17.5 3.25992 17.5 3.53995 17.5 4.1V5.17059C17.5 5.41518 17.5 5.53748 17.4724 5.65257C17.4479 5.7546 17.4075 5.85215 17.3526 5.94162C17.2908 6.04253 17.2043 6.12901 17.0314 6.30196L12.1353 11.198C11.9623 11.371 11.8759 11.4575 11.814 11.5584C11.7592 11.6479 11.7188 11.7454 11.6943 11.8474C11.6667 11.9625 11.6667 12.0848 11.6667 12.3294V14.1667L8.33333 17.5V12.3294C8.33333 12.0848 8.33333 11.9625 8.3057 11.8474C8.28121 11.7454 8.2408 11.6479 8.18597 11.5584C8.12413 11.4575 8.03766 11.371 7.8647 11.198L2.96863 6.30196C2.79568 6.12901 2.7092 6.04253 2.64736 5.94162C2.59253 5.85215 2.55213 5.7546 2.52763 5.65257C2.5 5.53748 2.5 5.41518 2.5 5.17059V4.1Z" stroke="#111111" stroke-width="2" stroke-linecap="round" stroke-linejoin="round"/>
</svg>
