<svg width="52" height="52" viewBox="0 0 52 52" fill="none" xmlns="http://www.w3.org/2000/svg">
<rect width="52" height="52" fill="#D6FBD6"/>
<path d="M19.638 31.673L19.184 32.564L19.184 32.564L19.638 31.673ZM18.327 30.362L19.218 29.908L19.218 29.908L18.327 30.362ZM33.673 30.362L32.782 29.908V29.908L33.673 30.362ZM32.362 31.673L32.816 32.564L32.816 32.564L32.362 31.673ZM33.673 17.638L32.782 18.092V18.092L33.673 17.638ZM32.362 16.327L31.908 17.218L31.908 17.218L32.362 16.327ZM18.327 17.638L19.218 18.092L18.327 17.638ZM19.638 16.327L20.092 17.218L19.638 16.327ZM21 19C20.4477 19 20 19.4477 20 20C20 20.5523 20.4477 21 21 21V19ZM21.01 21C21.5623 21 22.01 20.5523 22.01 20C22.01 19.4477 21.5623 19 21.01 19V21ZM31 19C30.4477 19 30 19.4477 30 20C30 20.5523 30.4477 21 31 21V19ZM31.01 21C31.5623 21 32.01 20.5523 32.01 20C32.01 19.4477 31.5623 19 31.01 19V21ZM25 16C25 15.4477 24.5523 15 24 15C23.4477 15 23 15.4477 23 16H25ZM23 32C23 32.5523 23.4477 33 24 33C24.5523 33 25 32.5523 25 32H23ZM29 16C29 15.4477 28.5523 15 28 15C27.4477 15 27 15.4477 27 16H29ZM27 32C27 32.5523 27.4477 33 28 33C28.5523 33 29 32.5523 29 32H27ZM18.9806 21.8039C18.8723 21.2623 18.3454 20.9111 17.8039 21.0194C17.2623 21.1277 16.9111 21.6546 17.0194 22.1961L18.9806 21.8039ZM34.9806 22.1961C35.0889 21.6546 34.7377 21.1277 34.1961 21.0194C33.6546 20.9111 33.1277 21.2623 33.0194 21.8039L34.9806 22.1961ZM18.9806 25.8039C18.8723 25.2623 18.3454 24.9111 17.8039 25.0194C17.2623 25.1277 16.9111 25.6546 17.0194 26.1961L18.9806 25.8039ZM34.9806 26.1961C35.0889 25.6546 34.7377 25.1277 34.1961 25.0194C33.6546 24.9111 33.1277 25.2623 33.0194 25.8039L34.9806 26.1961ZM23.6 29C24.1523 29 24.6 28.5523 24.6 28C24.6 27.4477 24.1523 27 23.6 27V29ZM28.4 27C27.8477 27 27.4 27.4477 27.4 28C27.4 28.5523 27.8477 29 28.4 29V27ZM33 20.8V27.2H35V20.8H33ZM29.2 31H22.8V33H29.2V31ZM19 27.2V20.8H17V27.2H19ZM22.8 31C21.9434 31 21.3611 30.9992 20.911 30.9624C20.4726 30.9266 20.2484 30.8617 20.092 30.782L19.184 32.564C19.6694 32.8113 20.1861 32.9099 20.7482 32.9558C21.2986 33.0008 21.9764 33 22.8 33V31ZM17 27.2C17 28.0236 16.9992 28.7014 17.0442 29.2518C17.0901 29.8139 17.1887 30.3306 17.436 30.816L19.218 29.908C19.1383 29.7516 19.0734 29.5274 19.0376 29.089C19.0008 28.6389 19 28.0566 19 27.2H17ZM20.092 30.782C19.7157 30.5903 19.4097 30.2843 19.218 29.908L17.436 30.816C17.8195 31.5686 18.4314 32.1805 19.184 32.564L20.092 30.782ZM33 27.2C33 28.0566 32.9992 28.6389 32.9624 29.089C32.9266 29.5274 32.8617 29.7516 32.782 29.908L34.564 30.816C34.8113 30.3306 34.9099 29.8139 34.9558 29.2518C35.0008 28.7014 35 28.0236 35 27.2H33ZM29.2 33C30.0236 33 30.7014 33.0008 31.2518 32.9558C31.8139 32.9099 32.3306 32.8113 32.816 32.564L31.908 30.782C31.7516 30.8617 31.5274 30.9266 31.089 30.9624C30.6389 30.9992 30.0566 31 29.2 31V33ZM32.782 29.908C32.5903 30.2843 32.2843 30.5903 31.908 30.782L32.816 32.564C33.5686 32.1805 34.1805 31.5686 34.564 30.816L32.782 29.908ZM35 20.8C35 19.9764 35.0008 19.2986 34.9558 18.7482C34.9099 18.1861 34.8113 17.6694 34.564 17.184L32.782 18.092C32.8617 18.2484 32.9266 18.4726 32.9624 18.911C32.9992 19.3611 33 19.9434 33 20.8H35ZM29.2 17C30.0566 17 30.6389 17.0008 31.089 17.0376C31.5274 17.0734 31.7516 17.1383 31.908 17.218L32.816 15.436C32.3306 15.1887 31.8139 15.0901 31.2518 15.0442C30.7014 14.9992 30.0236 15 29.2 15V17ZM34.564 17.184C34.1805 16.4314 33.5686 15.8195 32.816 15.436L31.908 17.218C32.2843 17.4097 32.5903 17.7157 32.782 18.092L34.564 17.184ZM19 20.8C19 19.9434 19.0008 19.3611 19.0376 18.911C19.0734 18.4726 19.1383 18.2484 19.218 18.092L17.436 17.184C17.1887 17.6694 17.0901 18.1861 17.0442 18.7482C16.9992 19.2986 17 19.9764 17 20.8H19ZM22.8 15C21.9764 15 21.2986 14.9992 20.7482 15.0442C20.1861 15.0901 19.6694 15.1887 19.184 15.436L20.092 17.218C20.2484 17.1383 20.4726 17.0734 20.911 17.0376C21.3611 17.0008 21.9434 17 22.8 17V15ZM19.218 18.092C19.4097 17.7157 19.7157 17.4097 20.092 17.218L19.184 15.436C18.4314 15.8195 17.8195 16.4314 17.436 17.184L19.218 18.092ZM21 21H21.01V19H21V21ZM31 21H31.01V19H31V21ZM23 16V32H25V16H23ZM27 16V32H29V16H27ZM17.0194 22.1961C17.103 22.6142 17.2991 23.2375 17.6447 23.7842C17.974 24.3054 18.6037 25 19.6 25V23C19.5982 23 19.5987 23.0001 19.5967 22.9994C19.5933 22.9982 19.5795 22.9927 19.5553 22.975C19.5018 22.9358 19.4237 22.8555 19.3353 22.7158C19.1542 22.4292 19.0303 22.0525 18.9806 21.8039L17.0194 22.1961ZM19.6 25H32.4V23H19.6V25ZM32.4 25C33.4113 25 34.5963 24.1176 34.9806 22.1961L33.0194 21.8039C32.7637 23.0824 32.1887 23 32.4 23V25ZM17.0194 26.1961C17.103 26.6142 17.2991 27.2375 17.6447 27.7842C17.974 28.3054 18.6037 29 19.6 29V27C19.5982 27 19.5987 27.0001 19.5967 26.9994C19.5933 26.9982 19.5795 26.9927 19.5553 26.975C19.5018 26.9358 19.4237 26.8555 19.3353 26.7158C19.1542 26.4292 19.0303 26.0525 18.9806 25.8039L17.0194 26.1961ZM32.4 29C33.4113 29 34.5963 28.1176 34.9806 26.1961L33.0194 25.8039C32.7637 27.0824 32.1887 27 32.4 27V29ZM19.6 29H23.6V27H19.6V29ZM28.4 29H32.4V27H28.4V29ZM22.8 17H29.2V15H22.8V17Z" fill="#007700"/>
</svg>
