<svg width="52" height="52" viewBox="0 0 52 52" fill="none" xmlns="http://www.w3.org/2000/svg">
<rect width="52" height="52" fill="#FBF3D6"/>
<path fill-rule="evenodd" clip-rule="evenodd" d="M27.4226 22.1271H32.4004L28.6671 27.1563L24.5782 32.4194V25.8698H19.6004L23.7147 20.7236L27.4226 15.5775V22.1271ZM22.4339 19.7765L26.1187 14.6625C26.5221 14.1026 27.2461 13.8644 27.9093 14.0733C28.5725 14.2823 29.0226 14.8905 29.0226 15.5775V20.5482H32.4004C33.0032 20.5482 33.5548 20.8825 33.8274 21.4131C34.1 21.9436 34.0473 22.5803 33.6911 23.0602L29.9578 28.0894C29.9509 28.0987 29.9439 28.1078 29.9368 28.117L25.848 33.3801C25.4308 33.917 24.7134 34.132 24.0642 33.9146C23.415 33.6973 22.9782 33.0959 22.9782 32.4194V27.4487H19.6004C18.9873 27.4487 18.4281 27.103 18.1607 26.5585C17.8932 26.0141 17.9645 25.3668 18.3443 24.8918L22.4339 19.7765Z" fill="#E7B400"/>
<path fill-rule="evenodd" clip-rule="evenodd" d="M27.4226 22.7271C27.0913 22.7271 26.8226 22.4585 26.8226 22.1271V17.4366L24.2015 21.0744C24.1956 21.0825 24.1896 21.0905 24.1833 21.0983L20.8483 25.2698H24.5782C24.9096 25.2698 25.1782 25.5384 25.1782 25.8698V30.6691L28.1892 26.7934L31.2077 22.7271H27.4226ZM32.4004 22.1271L28.6671 27.1563L24.5782 32.4194V25.8698H19.6004L23.7147 20.7236L27.4226 15.5775V22.1271H32.4004ZM21.9558 19.4136L25.6319 14.3118C26.1882 13.5397 27.1821 13.2152 28.0896 13.5011C28.9984 13.7874 29.6226 14.6242 29.6226 15.5775V19.9482H32.4004C33.2251 19.9482 33.9843 20.4056 34.3611 21.1388C34.7384 21.8732 34.665 22.7549 34.1729 23.4178L30.4396 28.447C30.4301 28.4598 30.4204 28.4725 30.4106 28.4851L26.3218 33.7482C25.7468 34.4882 24.7623 34.7811 23.8737 34.4836L24.0642 33.9146C24.7134 34.132 25.4308 33.917 25.848 33.3801L29.9368 28.117C29.9439 28.1078 29.9509 28.0987 29.9578 28.0894L33.6911 23.0602C34.0473 22.5803 34.1 21.9436 33.8274 21.4131C33.5548 20.8825 33.0032 20.5482 32.4004 20.5482H29.0226V15.5775C29.0226 14.8905 28.5725 14.2823 27.9093 14.0733C27.2461 13.8644 26.5221 14.1026 26.1187 14.6625L22.4339 19.7765L18.3443 24.8918C17.9645 25.3668 17.8932 26.0141 18.1607 26.5585C18.4281 27.103 18.9873 27.4487 19.6004 27.4487H22.9782V32.4194C22.9782 33.0959 23.415 33.6973 24.0642 33.9146L23.8737 34.4836C22.9839 34.1857 22.3782 33.3581 22.3782 32.4194V28.0487H19.6004C18.7617 28.0487 17.9919 27.5757 17.6222 26.8231C17.2519 26.0694 17.3512 25.173 17.8757 24.5171L21.9558 19.4136Z" fill="#E7B400"/>
</svg>
