<svg width="40" height="40" viewBox="0 0 40 40" fill="none" xmlns="http://www.w3.org/2000/svg">
<g clip-path="url(#clip0_1919_74472)">
<path d="M30.0498 17.4406C30.0659 17.4331 30.0867 17.4246 30.1131 17.4167V24.8765C30.1131 25.4533 29.8054 25.9862 29.3059 26.2746L20.8579 31.1521C20.3584 31.4404 19.743 31.4404 19.2435 31.1521L10.7955 26.2746C10.296 25.9862 9.98828 25.4533 9.98828 24.8765V20.2336C10.1185 20.2845 10.324 20.4518 10.6348 21.0124C10.7999 21.3104 10.9447 21.619 11.0953 21.9244C11.2562 22.2507 11.4471 22.6265 11.6749 22.9728C12.1296 23.6642 12.902 24.4872 14.1875 24.4872C15.6223 24.4872 16.386 23.3653 16.7877 22.5536C17.2413 21.6371 17.511 20.6456 17.8334 19.6787C18.1632 18.6892 18.4859 17.8761 18.9014 17.3126C19.0923 17.0538 19.2809 16.8759 19.4802 16.7616C19.6765 16.6492 19.8983 16.5898 20.1703 16.5898C20.9038 16.5898 21.3549 16.8003 21.6908 17.0739C22.0639 17.3778 22.366 17.8172 22.6933 18.4006C23.0421 19.0224 23.348 19.6737 23.7857 20.2404C24.2755 20.8745 25.0225 21.4957 26.1532 21.4957C27.3789 21.4957 28.1021 20.7189 28.5176 20.061C28.8814 19.4849 29.1161 18.8436 29.4258 18.2395C29.7012 17.7025 29.8985 17.5111 30.0498 17.4406Z" fill="#111111"/>
<path d="M30.1131 15.1208V15.8394C29.4728 15.8937 29.0007 16.1945 28.6371 16.6095C28.2377 17.0652 27.9642 17.6656 27.72 18.2011L27.7102 18.2226C27.4848 18.7171 27.2845 19.1519 27.0313 19.4684C26.7894 19.7706 26.5214 19.9374 26.1532 19.9374C25.7408 19.9374 25.4325 19.7608 25.1484 19.4442C24.8525 19.1144 24.6043 18.657 24.3176 18.1248L24.3079 18.1066C23.9469 17.4362 23.5327 16.6669 22.9069 16.0705C22.2617 15.4557 21.4011 15.0315 20.1703 15.0315C18.9082 15.0315 18.0657 15.7215 17.4655 16.652C16.8787 17.5618 16.4978 18.7396 16.1531 19.8051L16.1459 19.8275C15.8614 20.7071 15.603 21.5015 15.2771 22.0793C14.9513 22.657 14.6096 22.9288 14.1875 22.9288C13.776 22.9288 13.4654 22.7375 13.1829 22.3977C12.8905 22.0461 12.6542 21.5667 12.3948 21.0361L12.3844 21.0149C12.1148 20.4635 11.819 19.8584 11.4158 19.405C11.054 18.998 10.5951 18.7012 9.98828 18.6535V15.1208C9.98828 14.544 10.296 14.0111 10.7955 13.7227L19.2435 8.84519C19.743 8.55681 20.3584 8.55681 20.8579 8.84519L29.3059 13.7227C29.8054 14.0111 30.1131 14.544 30.1131 15.1208Z" fill="#E7B400"/>
</g>
<defs>
<clipPath id="clip0_1919_74472">
<rect width="20" height="26" fill="white" transform="translate(10 7)"/>
</clipPath>
</defs>
</svg>
