<svg width="16" height="12" viewBox="0 0 16 12" fill="none" xmlns="http://www.w3.org/2000/svg">
<path d="M10.6094 0.398438H12.3672L5.375 11.6016H3.61719L10.6094 0.398438ZM7.10938 3.1875C7.10938 3.70833 6.98438 4.1901 6.73438 4.63281C6.48958 5.07552 6.1276 5.4349 5.64844 5.71094C5.16927 5.98177 4.61979 6.11719 4 6.11719C3.07812 6.11719 2.33333 5.83073 1.76562 5.25781C1.19792 4.6849 0.914062 3.99479 0.914062 3.1875C0.914062 2.36979 1.19792 1.67448 1.76562 1.10156C2.33333 0.528646 3.07812 0.242188 4 0.242188C4.61979 0.242188 5.16927 0.380208 5.64844 0.65625C6.1276 0.927083 6.48958 1.28646 6.73438 1.73438C6.98438 2.17708 7.10938 2.66146 7.10938 3.1875ZM5.1875 4.38281C5.48438 4.07552 5.63281 3.67708 5.63281 3.1875C5.63281 2.69792 5.48438 2.29948 5.1875 1.99219C4.89062 1.67969 4.49479 1.52344 4 1.52344C3.50521 1.52344 3.11198 1.67969 2.82031 1.99219C2.52865 2.29948 2.38281 2.69792 2.38281 3.1875C2.38281 3.67708 2.52865 4.07552 2.82031 4.38281C3.11198 4.6849 3.50521 4.83594 4 4.83594C4.49479 4.83594 4.89062 4.6849 5.1875 4.38281ZM15.0938 8.82031C15.0938 9.63281 14.8073 10.3255 14.2344 10.8984C13.6667 11.4714 12.9167 11.7578 11.9844 11.7578C11.0625 11.7578 10.3177 11.4714 9.75 10.8984C9.18229 10.3255 8.89844 9.63281 8.89844 8.82031C8.89844 8.01302 9.18229 7.32292 9.75 6.75C10.3177 6.17708 11.0625 5.89062 11.9844 5.89062C12.6042 5.89062 13.1536 6.02865 13.6328 6.30469C14.112 6.57552 14.474 6.93229 14.7188 7.375C14.9688 7.81771 15.0938 8.29948 15.0938 8.82031ZM13.6172 8.82031C13.6172 8.34115 13.4688 7.94792 13.1719 7.64062C12.875 7.32812 12.4792 7.17188 11.9844 7.17188C11.4896 7.17188 11.0964 7.32552 10.8047 7.63281C10.513 7.9401 10.3672 8.33594 10.3672 8.82031C10.3672 9.3099 10.513 9.71094 10.8047 10.0234C11.0964 10.3307 11.4896 10.4844 11.9844 10.4844C12.4792 10.4844 12.875 10.3307 13.1719 10.0234C13.4688 9.71094 13.6172 9.3099 13.6172 8.82031Z" fill="#111111" fill-opacity="0.4"/>
</svg>
