<svg width="88" height="28" viewBox="0 0 88 28" fill="none" xmlns="http://www.w3.org/2000/svg">
<g clip-path="url(#clip0_436_51776)">
<path d="M3.125 21.8281C4.29749 23.459 5.80148 24.8236 7.53832 25.8325C9.27516 26.8413 11.2057 27.4716 13.2032 27.6821C12.1755 26.1356 10.6817 24.7128 8.81672 23.6296C6.95178 22.5464 4.97677 21.9547 3.125 21.8281Z" fill="url(#paint0_linear_436_51776)"/>
<path d="M11.3226 19.3145C7.72955 17.2271 3.84069 16.6951 1.05811 17.6349C1.32673 18.5227 1.681 19.3823 2.11592 20.2016C4.53352 20.1456 7.17314 20.8022 9.6293 22.2288C12.0855 23.6553 13.9641 25.6243 15.1136 27.7526C16.0413 27.7241 16.964 27.6059 17.8689 27.3998C17.3064 24.5175 14.9146 21.4024 11.3226 19.3145Z" fill="url(#paint1_linear_436_51776)"/>
<path d="M28.4444 10.8416C27.9875 8.98352 27.161 7.23652 26.014 5.70494C24.8671 4.17334 23.4232 2.88859 21.7687 1.92738C20.1142 0.966165 18.283 0.348211 16.3844 0.110411C14.4858 -0.127389 12.5587 0.0198425 10.7183 0.543315C13.7929 0.919595 17.2058 2.07383 20.5528 4.01825C23.8998 5.96268 26.5954 8.35537 28.4444 10.8416Z" fill="url(#paint2_linear_436_51776)"/>
<path d="M23.971 17.6577C22.3972 15.0439 19.7012 12.5412 16.38 10.6118C13.0589 8.68244 9.55007 7.58042 6.50266 7.50751C3.82166 7.444 1.80951 8.22338 0.983577 9.64525C0.978873 9.6537 0.972287 9.66171 0.967113 9.67017C0.892798 9.93687 0.828829 10.204 0.770508 10.4721C1.92381 10.0168 3.26007 9.7633 4.74591 9.73507C8.05011 9.673 11.748 10.7299 15.1604 12.7124C18.5728 14.6949 21.3248 17.3849 22.9071 20.2851C23.6164 21.5917 24.059 22.8781 24.2344 24.1071C24.4385 23.9246 24.6389 23.736 24.8332 23.5399C24.8384 23.5309 24.8416 23.5215 24.8468 23.5121C25.6727 22.0888 25.3534 19.9553 23.971 17.6577Z" fill="url(#paint3_linear_436_51776)"/>
<path d="M13.8531 14.9607C8.7672 12.0059 3.14697 11.5431 0.444336 13.6051C0.449644 14.2505 0.498988 14.8948 0.592025 15.5335C1.38705 15.2925 2.20643 15.1408 3.03503 15.0811C6.05514 14.8539 9.38476 15.6954 12.4063 17.4517C15.4278 19.2079 17.8097 21.6848 19.1088 24.4189C19.4679 25.168 19.7417 25.9549 19.9253 26.765C20.5264 26.5294 21.1108 26.2533 21.6746 25.9386C22.127 22.569 18.9404 17.9159 13.8531 14.9607Z" fill="url(#paint4_linear_436_51776)"/>
<path d="M26.5866 13.282C24.995 10.6711 22.2754 8.16131 18.9308 6.21923C15.5861 4.27715 12.0636 3.15771 9.00635 3.06789C6.67577 3.00063 4.87055 3.5655 3.93457 4.63272C7.82105 3.97425 12.9474 5.08097 17.9162 7.96752C22.885 10.8541 26.3872 14.7598 27.739 18.462C28.2023 17.121 27.7992 15.273 26.5866 13.282Z" fill="url(#paint5_linear_436_51776)"/>
</g>
<path d="M43.6062 8.36293H45.7341V15.4624C45.7341 16.1186 45.5866 16.6887 45.2916 17.1726C44.9999 17.6565 44.5939 18.0294 44.0736 18.2912C43.5532 18.553 42.9483 18.6839 42.2589 18.6839C41.6458 18.6839 41.089 18.5762 40.5885 18.3608C40.0913 18.142 39.6969 17.8106 39.4052 17.3665C39.1136 16.919 38.9694 16.3572 38.9727 15.6811H41.1155C41.1221 15.9496 41.1768 16.1799 41.2795 16.3722C41.3856 16.5611 41.5298 16.7069 41.7121 16.8097C41.8977 16.9091 42.1164 16.9588 42.3683 16.9588C42.6335 16.9588 42.8572 16.9025 43.0395 16.7898C43.2251 16.6738 43.3659 16.5047 43.4621 16.2827C43.5582 16.0606 43.6062 15.7872 43.6062 15.4624V8.36293Z" fill="#111111"/>
<path d="M52.3712 15.2933V10.9084H54.489V18.5447H52.4557V17.1577H52.3761C52.2038 17.6051 51.9171 17.9647 51.516 18.2365C51.1183 18.5083 50.6328 18.6442 50.0594 18.6442C49.5489 18.6442 49.0998 18.5282 48.7121 18.2962C48.3243 18.0642 48.021 17.7344 47.8023 17.3068C47.5868 16.8793 47.4774 16.3672 47.4741 15.7706V10.9084H49.592V15.3928C49.5953 15.8435 49.7163 16.1998 49.955 16.4616C50.1936 16.7235 50.5134 16.8544 50.9145 16.8544C51.1697 16.8544 51.4083 16.7964 51.6304 16.6804C51.8524 16.5611 52.0314 16.3854 52.1673 16.1534C52.3065 15.9214 52.3745 15.6347 52.3712 15.2933Z" fill="#111111"/>
<path d="M56.1831 21.4084V10.9084H58.2712V12.1911H58.3656C58.4585 11.9856 58.5927 11.7768 58.7683 11.5646C58.9473 11.3492 59.1793 11.1702 59.4644 11.0277C59.7527 10.8819 60.1107 10.8089 60.5382 10.8089C61.0951 10.8089 61.6088 10.9548 62.0794 11.2464C62.5501 11.5348 62.9263 11.9706 63.208 12.554C63.4897 13.134 63.6306 13.8615 63.6306 14.7365C63.6306 15.5883 63.493 16.3075 63.2179 16.8942C62.9461 17.4775 62.5749 17.92 62.1043 18.2216C61.637 18.5199 61.1133 18.669 60.5333 18.669C60.1223 18.669 59.7726 18.6011 59.4843 18.4652C59.1992 18.3293 58.9656 18.1586 58.7833 17.9531C58.601 17.7443 58.4618 17.5339 58.3656 17.3217H58.301V21.4084H56.1831ZM58.2563 14.7266C58.2563 15.1806 58.3192 15.5767 58.4452 15.9148C58.5711 16.2528 58.7534 16.5163 58.9921 16.7053C59.2307 16.8909 59.5207 16.9837 59.8621 16.9837C60.2068 16.9837 60.4985 16.8892 60.7371 16.7003C60.9757 16.508 61.1564 16.2429 61.279 15.9048C61.4049 15.5634 61.4679 15.1707 61.4679 14.7266C61.4679 14.2857 61.4066 13.898 61.284 13.5632C61.1613 13.2285 60.9807 12.9666 60.7421 12.7777C60.5034 12.5888 60.2101 12.4943 59.8621 12.4943C59.5174 12.4943 59.2257 12.5855 58.9871 12.7678C58.7518 12.95 58.5711 13.2086 58.4452 13.5433C58.3192 13.8781 58.2563 14.2725 58.2563 14.7266Z" fill="#111111"/>
<path d="M65.0425 18.5447V10.9084H67.1604V18.5447H65.0425ZM66.1064 9.92401C65.7915 9.92401 65.5214 9.8196 65.296 9.6108C65.074 9.39867 64.9629 9.14512 64.9629 8.85014C64.9629 8.55848 65.074 8.30824 65.296 8.09943C65.5214 7.88731 65.7915 7.78125 66.1064 7.78125C66.4213 7.78125 66.6897 7.88731 66.9118 8.09943C67.1372 8.30824 67.2499 8.55848 67.2499 8.85014C67.2499 9.14512 67.1372 9.39867 66.9118 9.6108C66.6897 9.8196 66.4213 9.92401 66.1064 9.92401Z" fill="#111111"/>
<path d="M72.9187 10.9084V12.4993H68.32V10.9084H72.9187ZM69.364 9.07884H71.4819V16.1982C71.4819 16.3937 71.5118 16.5462 71.5714 16.6555C71.6311 16.7616 71.714 16.8362 71.82 16.8793C71.9294 16.9223 72.0553 16.9439 72.1979 16.9439C72.2973 16.9439 72.3967 16.9356 72.4962 16.919C72.5956 16.8991 72.6718 16.8842 72.7248 16.8743L73.0579 18.4503C72.9519 18.4834 72.8027 18.5215 72.6105 18.5646C72.4183 18.611 72.1846 18.6392 71.9095 18.6491C71.3991 18.669 70.9516 18.6011 70.5672 18.4453C70.186 18.2895 69.8894 18.0476 69.6773 17.7195C69.4651 17.3913 69.3607 16.977 69.364 16.4766V9.07884Z" fill="#111111"/>
<path d="M77.6964 18.6939C76.9109 18.6939 76.2348 18.5348 75.668 18.2166C75.1046 17.8951 74.6704 17.4411 74.3655 16.8544C74.0605 16.2644 73.9081 15.5668 73.9081 14.7614C73.9081 13.9759 74.0605 13.2865 74.3655 12.6932C74.6704 12.0999 75.0996 11.6375 75.6531 11.3061C76.2099 10.9747 76.8629 10.8089 77.6119 10.8089C78.1157 10.8089 78.5847 10.8902 79.0189 11.0526C79.4564 11.2116 79.8375 11.4519 80.1623 11.7734C80.4905 12.0949 80.7457 12.4993 80.928 12.9865C81.1103 13.4704 81.2014 14.0372 81.2014 14.6868V15.2685H74.7533V13.956H79.2078C79.2078 13.651 79.1415 13.3809 79.0089 13.1456C78.8764 12.9103 78.6924 12.7263 78.4571 12.5938C78.2251 12.4579 77.955 12.3899 77.6467 12.3899C77.3252 12.3899 77.0402 12.4645 76.7916 12.6136C76.5463 12.7595 76.3541 12.9567 76.2149 13.2053C76.0757 13.4505 76.0044 13.724 76.0011 14.0256V15.2734C76.0011 15.6513 76.0707 15.9777 76.2099 16.2528C76.3525 16.5279 76.553 16.7401 76.8115 16.8892C77.07 17.0384 77.3766 17.1129 77.7312 17.1129C77.9666 17.1129 78.182 17.0798 78.3775 17.0135C78.5731 16.9472 78.7405 16.8478 78.8797 16.7152C79.0189 16.5826 79.1249 16.4202 79.1979 16.228L81.1567 16.3572C81.0572 16.8279 80.8534 17.2389 80.5452 17.5902C80.2402 17.9382 79.8458 18.21 79.3619 18.4055C78.8813 18.5978 78.3262 18.6939 77.6964 18.6939Z" fill="#111111"/>
<path d="M82.5835 18.5447V10.9084H84.6368V12.2408H84.7163C84.8555 11.7668 85.0892 11.4089 85.4173 11.1669C85.7454 10.9216 86.1233 10.799 86.5508 10.799C86.6569 10.799 86.7712 10.8056 86.8939 10.8189C87.0165 10.8321 87.1242 10.8504 87.217 10.8736V12.7528C87.1176 12.723 86.9801 12.6965 86.8044 12.6733C86.6287 12.6501 86.468 12.6385 86.3222 12.6385C86.0106 12.6385 85.7322 12.7064 85.4869 12.8423C85.245 12.9749 85.0527 13.1605 84.9102 13.3991C84.771 13.6378 84.7014 13.9129 84.7014 14.2244V18.5447H82.5835Z" fill="#111111"/>
<defs>
<linearGradient id="paint0_linear_436_51776" x1="23.1245" y1="3.6419" x2="4.64449" y2="27.7219" gradientUnits="userSpaceOnUse">
<stop stop-color="#F9A43A"/>
<stop offset="0.25" stop-color="#FFC45E"/>
<stop offset="0.53125" stop-color="#93EEEF"/>
<stop offset="0.760417" stop-color="#81F4FE"/>
<stop offset="1" stop-color="#3BDBFB"/>
</linearGradient>
<linearGradient id="paint1_linear_436_51776" x1="23.1244" y1="3.63997" x2="4.64437" y2="27.72" gradientUnits="userSpaceOnUse">
<stop stop-color="#F9A43A"/>
<stop offset="0.25" stop-color="#FFC45E"/>
<stop offset="0.53125" stop-color="#93EEEF"/>
<stop offset="0.760417" stop-color="#81F4FE"/>
<stop offset="1" stop-color="#3BDBFB"/>
</linearGradient>
<linearGradient id="paint2_linear_436_51776" x1="23.1244" y1="3.64" x2="4.64436" y2="27.72" gradientUnits="userSpaceOnUse">
<stop stop-color="#F9A43A"/>
<stop offset="0.25" stop-color="#FFC45E"/>
<stop offset="0.53125" stop-color="#93EEEF"/>
<stop offset="0.760417" stop-color="#81F4FE"/>
<stop offset="1" stop-color="#3BDBFB"/>
</linearGradient>
<linearGradient id="paint3_linear_436_51776" x1="23.1245" y1="3.64152" x2="4.64453" y2="27.7215" gradientUnits="userSpaceOnUse">
<stop stop-color="#F9A43A"/>
<stop offset="0.25" stop-color="#FFC45E"/>
<stop offset="0.53125" stop-color="#93EEEF"/>
<stop offset="0.760417" stop-color="#81F4FE"/>
<stop offset="1" stop-color="#3BDBFB"/>
</linearGradient>
<linearGradient id="paint4_linear_436_51776" x1="23.1243" y1="3.64155" x2="4.64434" y2="27.7215" gradientUnits="userSpaceOnUse">
<stop stop-color="#F9A43A"/>
<stop offset="0.25" stop-color="#FFC45E"/>
<stop offset="0.53125" stop-color="#93EEEF"/>
<stop offset="0.760417" stop-color="#81F4FE"/>
<stop offset="1" stop-color="#3BDBFB"/>
</linearGradient>
<linearGradient id="paint5_linear_436_51776" x1="23.1242" y1="3.64057" x2="4.64418" y2="27.7206" gradientUnits="userSpaceOnUse">
<stop stop-color="#F9A43A"/>
<stop offset="0.25" stop-color="#FFC45E"/>
<stop offset="0.53125" stop-color="#93EEEF"/>
<stop offset="0.760417" stop-color="#81F4FE"/>
<stop offset="1" stop-color="#3BDBFB"/>
</linearGradient>
<clipPath id="clip0_436_51776">
<rect width="28" height="28" fill="white" transform="translate(0.444336)"/>
</clipPath>
</defs>
</svg>
