<svg width="40" height="40" viewBox="0 0 40 40" fill="none" xmlns="http://www.w3.org/2000/svg">
<g filter="url(#filter0_d_445_91703)">
<path d="M3.30987 24.0004C1.88054 21.525 1.88054 18.475 3.30987 15.9996L5.5004 12.206L7.69053 8.41213C9.11961 5.9366 11.7609 4.41163 14.6193 4.41178L19 4.412L23.3807 4.41178C26.2391 4.41163 28.8804 5.9366 30.3095 8.41213L32.4996 12.206L34.6901 15.9996C36.1195 18.475 36.1195 21.525 34.6901 24.0004L32.4996 27.794L30.3095 31.5879C28.8804 34.0634 26.2391 35.5884 23.3807 35.5882L19 35.588L14.6193 35.5882C11.7609 35.5884 9.11961 34.0634 7.69053 31.5879L5.5004 27.794L3.30987 24.0004Z" fill="#E5E5E5"/>
<path d="M5.06737 11.956L2.87687 15.7496C1.35821 18.3797 1.35821 21.6203 2.87687 24.2504L5.06737 28.044L5.0674 28.044L7.25751 31.8378C8.77591 34.4681 11.5823 36.0884 14.6194 36.0882L19 36.088H19L23.3806 36.0882C26.4177 36.0884 29.2241 34.4681 30.7425 31.8378L32.9326 28.044L32.9326 28.044L35.1231 24.2504C36.6418 21.6203 36.6418 18.3797 35.1231 15.7496L32.9326 11.956L32.9326 11.956L30.7425 8.16215C29.2241 5.5319 26.4177 3.91162 23.3806 3.91178L19 3.912L14.6194 3.91178C11.5823 3.91162 8.77591 5.5319 7.25751 8.16215L5.0674 11.956L5.06737 11.956Z" stroke="#D9D9D9"/>
</g>
<mask id="mask0_445_91703" style="mask-type:alpha" maskUnits="userSpaceOnUse" x="0" y="0" width="32" height="32">
<path d="M3.30987 24.0004C1.88054 21.525 1.88054 18.475 3.30987 15.9996L5.5004 12.206L7.69053 8.41213C9.11961 5.9366 11.7609 4.41163 14.6193 4.41178L19 4.412L23.3807 4.41178C26.2391 4.41163 28.8804 5.9366 30.3095 8.41213L32.4996 12.206L34.6901 15.9996C36.1195 18.475 36.1195 21.525 34.6901 24.0004L32.4996 27.794L30.3095 31.5879C28.8804 34.0634 26.2391 35.5884 23.3807 35.5882L19 35.588L14.6193 35.5882C11.7609 35.5884 9.11961 34.0634 7.69053 31.5879L5.5004 27.794L3.30987 24.0004Z" fill="#E5E5E5"/>
</mask>
<g mask="url(#mask0_445_91703)">
</g>
<path fill-rule="evenodd" clip-rule="evenodd" d="M18.9994 12.9486C16.4813 12.9486 14.4103 14.9675 14.4631 17.4221C14.4774 18.0905 14.7288 18.8577 15.0548 19.5665C15.376 20.2645 15.7437 20.851 15.9385 21.1441C16.0594 21.3258 16.1653 21.5281 16.2406 21.7516L16.8744 23.6323H21.1244L21.7581 21.7516C21.8334 21.5281 21.9394 21.3258 22.0602 21.1441C22.2551 20.851 22.6228 20.2645 22.9439 19.5665C23.2699 18.8577 23.5213 18.0905 23.5356 17.4221C23.5884 14.9675 21.5174 12.9486 18.9994 12.9486ZM20.9434 24.9144H17.0553V25.128C17.0553 26.1901 17.9257 27.0511 18.9994 27.0511C20.073 27.0511 20.9434 26.1901 20.9434 25.1279V24.9144ZM15.7593 24.3774L15.0111 22.1571C14.9769 22.0556 14.9252 21.9531 14.8558 21.8486C14.6399 21.524 14.2338 20.877 13.8752 20.0975C13.5215 19.3287 13.1872 18.3744 13.1673 17.4494C13.0983 14.2407 15.7911 11.6665 18.9994 11.6665C22.2076 11.6665 24.9004 14.2408 24.8314 17.4494C24.8115 18.3744 24.4772 19.3287 24.1235 20.0975C23.7649 20.877 23.3588 21.5241 23.143 21.8486C23.0735 21.9531 23.0218 22.0556 22.9877 22.1571L22.2395 24.3774V25.1279C22.2395 26.898 20.7889 28.3332 18.9994 28.3332C17.2099 28.3332 15.7593 26.8982 15.7593 25.128V24.3774Z" fill="#111111" fill-opacity="0.4"/>
<path fill-rule="evenodd" clip-rule="evenodd" d="M18.9994 13.4486C16.7429 13.4486 14.9166 15.2555 14.963 17.4113C14.9752 17.9785 15.1938 18.6721 15.5091 19.3575C15.8155 20.0235 16.1682 20.5864 16.3549 20.8672C16.4958 21.0791 16.623 21.3205 16.7145 21.592L17.2335 23.1323H20.7653L21.2843 21.592C21.3758 21.3205 21.503 21.0791 21.6438 20.8672C21.8305 20.5864 22.1832 20.0235 22.4896 19.3575C22.805 18.6721 23.0236 17.9785 23.0358 17.4113C23.0821 15.2555 21.2558 13.4486 18.9994 13.4486ZM21.1244 23.6323H16.8744L16.2406 21.7516C16.1653 21.5281 16.0594 21.3258 15.9385 21.1441C15.7437 20.851 15.376 20.2645 15.0548 19.5665C14.7288 18.8577 14.4774 18.0905 14.4631 17.4221C14.4103 14.9675 16.4813 12.9486 18.9994 12.9486C21.5174 12.9486 23.5884 14.9675 23.5356 17.4221C23.5213 18.0905 23.2699 18.8577 22.9439 19.5665C22.6228 20.2645 22.2551 20.851 22.0602 21.1441C21.9394 21.3258 21.8334 21.5281 21.7581 21.7516L21.1244 23.6323ZM17.0767 25.4144C17.0626 25.321 17.0553 25.2253 17.0553 25.128V24.9144H20.9434V25.1279C20.9434 25.2253 20.9361 25.3209 20.922 25.4144C20.7822 26.3406 19.9746 27.0511 18.9994 27.0511C18.0241 27.0511 17.2165 26.3407 17.0767 25.4144ZM20.4141 25.4144H17.5846C17.7188 26.0599 18.2974 26.5511 18.9994 26.5511C19.7013 26.5511 20.2799 26.0599 20.4141 25.4144ZM15.2593 24.4593L14.5373 22.3167C14.5192 22.2632 14.4888 22.1998 14.4394 22.1255C14.2154 21.7886 13.7943 21.1179 13.421 20.3065C13.0565 19.5141 12.6895 18.4863 12.6674 17.4601C12.592 13.9517 15.5307 11.1665 18.9994 11.1665C22.468 11.1665 25.4067 13.9517 25.3313 17.4601C25.3092 18.4863 24.9423 19.5141 24.5778 20.3065C24.2044 21.1179 23.7833 21.7886 23.5594 22.1255C23.5099 22.1998 23.4795 22.2632 23.4615 22.3167L22.7395 24.4593V25.1279C22.7395 27.1793 21.0599 28.8332 18.9994 28.8332C16.9389 28.8332 15.2593 27.1794 15.2593 25.128V24.4593ZM15.7593 24.3774L15.0111 22.1571C14.9769 22.0556 14.9252 21.9531 14.8558 21.8486C14.6399 21.524 14.2338 20.877 13.8752 20.0975C13.5215 19.3287 13.1872 18.3744 13.1673 17.4494C13.0983 14.2407 15.7911 11.6665 18.9994 11.6665C22.2076 11.6665 24.9004 14.2408 24.8314 17.4494C24.8115 18.3744 24.4772 19.3287 24.1235 20.0975C23.7649 20.877 23.3588 21.5241 23.143 21.8486C23.0735 21.9531 23.0218 22.0556 22.9877 22.1571L22.2395 24.3774V25.1279C22.2395 26.898 20.7889 28.3332 18.9994 28.3332C17.2099 28.3332 15.7593 26.8982 15.7593 25.128V24.3774Z" fill="#111111" fill-opacity="0.4"/>
<defs>
<filter id="filter0_d_445_91703" x="1.23828" y="3.41162" width="37.5234" height="35.1768" filterUnits="userSpaceOnUse" color-interpolation-filters="sRGB">
<feComposite in2="hardAlpha" operator="out"/>
<feColorMatrix type="matrix" values="0 0 0 0 0.85098 0 0 0 0 0.85098 0 0 0 0 0.85098 0 0 0 1 0"/>
<feBlend mode="normal" in2="BackgroundImageFix" result="effect1_dropShadow_445_91703"/>
<feBlend mode="normal" in="SourceGraphic" in2="effect1_dropShadow_445_91703" result="shape"/>
</filter>
</defs>
</svg>
