<svg width="14" height="18" viewBox="0 0 14 18" fill="none" xmlns="http://www.w3.org/2000/svg">
    <path fill-rule="evenodd" clip-rule="evenodd" d="M6.99985 1.94874C4.48179 1.94874 2.41076 3.96773 2.46356 6.42228C2.47793 7.09069 2.72927 7.8579 3.05533 8.56663C3.37644 9.26463 3.74417 9.85118 3.93904 10.1442C4.05987 10.326 4.1658 10.5283 4.24112 10.7518L4.87485 12.6325H9.12488L9.75861 10.7518C9.83393 10.5283 9.93985 10.326 10.0607 10.1442C10.2555 9.85119 10.6233 9.26465 10.9444 8.56664C11.2704 7.85791 11.5218 7.09069 11.5361 6.42228C11.5889 3.96773 9.5179 1.94874 6.99985 1.94874ZM8.94392 13.9146H5.0558V14.1282C5.0558 15.1903 5.92619 16.0513 6.99986 16.0513C8.0735 16.0513 8.94392 15.1902 8.94392 14.1281V13.9146ZM3.75976 13.3776L3.01159 11.1573C2.9774 11.0558 2.92571 10.9533 2.85624 10.8488C2.64043 10.5242 2.23432 9.8772 1.87569 9.09767C1.52201 8.32888 1.18771 7.3746 1.16781 6.44955C1.09879 3.24093 3.79163 0.666687 6.99985 0.666687C10.2081 0.666687 12.9009 3.24093 12.8319 6.44955C12.812 7.3746 12.4777 8.32888 12.124 9.09767C11.7654 9.8772 11.3593 10.5242 11.1435 10.8488C11.074 10.9533 11.0223 11.0558 10.9881 11.1572L10.24 13.3776V14.1281C10.24 15.8982 8.78936 17.3334 6.99986 17.3334C5.2104 17.3334 3.75976 15.8984 3.75976 14.1282V13.3776Z" fill="#111111"/>
    <path fill-rule="evenodd" clip-rule="evenodd" d="M6.99985 2.44874C4.74337 2.44874 2.91707 4.25568 2.96344 6.41153C2.97564 6.97871 3.19424 7.67226 3.50956 8.35766C3.81598 9.02371 4.16868 9.58659 4.35539 9.86738C4.49627 10.0792 4.62346 10.3207 4.71494 10.5922L5.23399 12.1325H8.76574L9.28479 10.5922C9.37627 10.3207 9.50345 10.0792 9.64432 9.8674C9.83103 9.5866 10.1837 9.02373 10.4901 8.35767C10.8055 7.67227 11.0241 6.97871 11.0363 6.41153C11.0826 4.25568 9.25632 2.44874 6.99985 2.44874ZM9.12488 12.6325H4.87485L4.24112 10.7518C4.1658 10.5283 4.05987 10.326 3.93904 10.1442C3.74417 9.85118 3.37644 9.26463 3.05533 8.56663C2.72927 7.8579 2.47793 7.09069 2.46356 6.42228C2.41076 3.96773 4.48179 1.94874 6.99985 1.94874C9.5179 1.94874 11.5889 3.96773 11.5361 6.42228C11.5218 7.09069 11.2704 7.85791 10.9444 8.56664C10.6233 9.26465 10.2555 9.85119 10.0607 10.1442C9.93985 10.326 9.83393 10.5283 9.75861 10.7518L9.12488 12.6325ZM5.0772 14.4146C5.06311 14.3211 5.0558 14.2255 5.0558 14.1282V13.9146H8.94392V14.1281C8.94392 14.2255 8.93661 14.3211 8.92251 14.4146C8.78268 15.3408 7.97511 16.0513 6.99986 16.0513C6.02455 16.0513 5.21698 15.3408 5.0772 14.4146ZM8.41457 14.4146H5.58514C5.71926 15.0601 6.29789 15.5513 6.99986 15.5513C7.70175 15.5513 8.2804 15.0601 8.41457 14.4146ZM3.25976 13.4595L2.53776 11.3169C2.51974 11.2634 2.48931 11.2 2.43989 11.1256C2.21591 10.7888 1.79477 10.1181 1.42146 9.30664C1.05695 8.51432 0.689998 7.48646 0.667926 6.46031C0.59246 2.95188 3.5312 0.166687 6.99985 0.166687C10.4685 0.166687 13.4072 2.95189 13.3318 6.4603C13.3097 7.48645 12.9428 8.51432 12.5782 9.30664C12.2049 10.1181 11.7838 10.7888 11.5598 11.1256C11.5104 11.2 11.48 11.2634 11.462 11.3169L10.74 13.4595V14.1281C10.74 16.1794 9.0604 17.8334 6.99986 17.8334C4.93939 17.8334 3.25976 16.1796 3.25976 14.1282V13.4595ZM3.75976 13.3776L3.01159 11.1573C2.9774 11.0558 2.92571 10.9533 2.85624 10.8488C2.64043 10.5242 2.23432 9.8772 1.87569 9.09767C1.52201 8.32888 1.18771 7.3746 1.16781 6.44955C1.09879 3.24093 3.79163 0.666687 6.99985 0.666687C10.2081 0.666687 12.9009 3.24093 12.8319 6.44955C12.812 7.3746 12.4777 8.32888 12.124 9.09767C11.7654 9.8772 11.3593 10.5242 11.1435 10.8488C11.074 10.9533 11.0223 11.0558 10.9881 11.1572L10.24 13.3776V14.1281C10.24 15.8982 8.78936 17.3334 6.99986 17.3334C5.2104 17.3334 3.75976 15.8984 3.75976 14.1282V13.3776Z" fill="#111111"/>
</svg>
