<svg width="14" height="18" viewBox="0 0 14 18" fill="none" xmlns="http://www.w3.org/2000/svg">
<path fill-rule="evenodd" clip-rule="evenodd" d="M6.99997 1.94872C4.48192 1.94872 2.41088 3.96771 2.46368 6.42227C2.47806 7.09067 2.72939 7.85788 3.05545 8.56662C3.37656 9.26462 3.74429 9.85116 3.93916 10.1442C4.05999 10.3259 4.16592 10.5283 4.24124 10.7518L4.87497 12.6325H9.125L9.75873 10.7518C9.83405 10.5283 9.93997 10.326 10.0608 10.1442C10.2557 9.85117 10.6234 9.26463 10.9445 8.56663C11.2705 7.85789 11.5219 7.09067 11.5363 6.42227C11.589 3.96771 9.51802 1.94872 6.99997 1.94872ZM8.94405 13.9145H5.05592V14.1282C5.05592 15.1903 5.92631 16.0513 6.99999 16.0513C8.07362 16.0513 8.94405 15.1902 8.94405 14.1281V13.9145ZM3.75988 13.3775L3.01171 11.1572C2.97752 11.0558 2.92583 10.9532 2.85636 10.8488C2.64055 10.5242 2.23444 9.87718 1.87582 9.09766C1.52213 8.32886 1.18783 7.37459 1.16793 6.44954C1.09892 3.24092 3.79175 0.666672 6.99997 0.666672C10.2082 0.666672 12.901 3.24092 12.832 6.44954C12.8121 7.37458 12.4778 8.32886 12.1241 9.09766C11.7655 9.87719 11.3594 10.5242 11.1436 10.8488C11.0741 10.9532 11.0225 11.0558 10.9883 11.1572L10.2401 13.3775V14.1281C10.2401 15.8982 8.78948 17.3333 6.99999 17.3333C5.21053 17.3333 3.75988 15.8984 3.75988 14.1282V13.3775Z" fill="#111111"/>
<path fill-rule="evenodd" clip-rule="evenodd" d="M6.99997 2.44872C4.74349 2.44872 2.91719 4.25566 2.96356 6.41151C2.97576 6.97869 3.19437 7.67225 3.50968 8.35765C3.8161 9.0237 4.1688 9.58657 4.35551 9.86737C4.49639 10.0792 4.62358 10.3207 4.71506 10.5922L5.23411 12.1325H8.76586L9.28491 10.5921C9.37639 10.3207 9.50358 10.0792 9.64444 9.86738C9.83115 9.58659 10.1838 9.02371 10.4903 8.35766C10.8056 7.67226 11.0242 6.9787 11.0364 6.41152C11.0827 4.25566 9.25644 2.44872 6.99997 2.44872ZM9.125 12.6325H4.87497L4.24124 10.7518C4.16592 10.5283 4.05999 10.3259 3.93916 10.1442C3.74429 9.85116 3.37656 9.26462 3.05545 8.56662C2.72939 7.85788 2.47806 7.09067 2.46368 6.42227C2.41088 3.96771 4.48192 1.94872 6.99997 1.94872C9.51802 1.94872 11.589 3.96771 11.5363 6.42227C11.5219 7.09067 11.2705 7.85789 10.9445 8.56663C10.6234 9.26463 10.2557 9.85117 10.0608 10.1442C9.93997 10.326 9.83405 10.5283 9.75873 10.7518L9.125 12.6325ZM5.07733 14.4145C5.06323 14.3211 5.05592 14.2255 5.05592 14.1282V13.9145H8.94405V14.1281C8.94405 14.2254 8.93674 14.3211 8.92263 14.4145C8.7828 15.3408 7.97523 16.0513 6.99999 16.0513C6.02467 16.0513 5.2171 15.3408 5.07733 14.4145ZM8.41469 14.4145H5.58526C5.71939 15.0601 6.29802 15.5513 6.99999 15.5513C7.70187 15.5513 8.28052 15.0601 8.41469 14.4145ZM3.25988 13.4595L2.53789 11.3169C2.51986 11.2634 2.48943 11.1999 2.44001 11.1256C2.21603 10.7888 1.79489 10.1181 1.42158 9.30663C1.05707 8.5143 0.69012 7.48644 0.668048 6.46029C0.592582 2.95187 3.53132 0.166672 6.99997 0.166672C10.4686 0.166672 13.4073 2.95187 13.3319 6.46029C13.3098 7.48644 12.9429 8.5143 12.5784 9.30663C12.2051 10.1181 11.7839 10.7888 11.56 11.1256C11.5105 11.1999 11.4801 11.2634 11.4621 11.3169L10.7401 13.4595V14.1281C10.7401 16.1794 9.06052 17.8333 6.99999 17.8333C4.93951 17.8333 3.25988 16.1796 3.25988 14.1282V13.4595ZM3.75988 13.3775L3.01171 11.1572C2.97752 11.0558 2.92583 10.9532 2.85636 10.8488C2.64055 10.5242 2.23444 9.87718 1.87582 9.09766C1.52213 8.32886 1.18783 7.37459 1.16793 6.44954C1.09892 3.24092 3.79175 0.666672 6.99997 0.666672C10.2082 0.666672 12.901 3.24092 12.832 6.44954C12.8121 7.37458 12.4778 8.32886 12.1241 9.09766C11.7655 9.87719 11.3594 10.5242 11.1436 10.8488C11.0741 10.9532 11.0225 11.0558 10.9883 11.1572L10.2401 13.3775V14.1281C10.2401 15.8982 8.78948 17.3333 6.99999 17.3333C5.21053 17.3333 3.75988 15.8984 3.75988 14.1282V13.3775Z" fill="#111111"/>
</svg>
