<svg width="53" height="52" viewBox="0 0 53 52" fill="none" xmlns="http://www.w3.org/2000/svg">
<g filter="url(#filter0_d_772_1435)">
<path d="M4.80988 28.0004C3.38054 25.525 3.38054 22.475 4.80988 19.9996L8.50053 13.608L12.1905 7.21598C13.6196 4.74045 16.2609 3.21548 19.1193 3.21563L26.5 3.216L33.8807 3.21563C36.7391 3.21548 39.3804 4.74045 40.8095 7.21598L44.4995 13.608L48.1901 19.9996C49.6195 22.475 49.6195 25.525 48.1901 28.0004L44.4995 34.392L40.8095 40.784C39.3804 43.2596 36.7391 44.7845 33.8807 44.7844L26.5 44.784L19.1193 44.7844C16.2609 44.7845 13.6196 43.2596 12.1905 40.784L8.50053 34.392L4.80988 28.0004Z" fill="white"/>
<path d="M8.0675 13.358L4.37688 19.7496C2.85821 22.3797 2.85821 25.6203 4.37688 28.2504L8.0675 34.642L8.06753 34.642L11.7575 41.034C13.2759 43.6643 16.0823 45.2845 19.1194 45.2844L26.5 45.284H26.5L33.8806 45.2844C36.9177 45.2845 39.7241 43.6643 41.2425 41.034L44.9325 34.642L44.9325 34.642L48.6231 28.2504C50.1418 25.6203 50.1418 22.3797 48.6231 19.7496L44.9325 13.358L44.9325 13.358L41.2425 6.966C39.7241 4.33575 36.9177 2.71547 33.8806 2.71563L26.5 2.716L19.1194 2.71563C16.0823 2.71547 13.2759 4.33575 11.7575 6.966L8.06753 13.358L8.0675 13.358Z" stroke="#D9D9D9"/>
</g>
<path fill-rule="evenodd" clip-rule="evenodd" d="M26.4994 16.949C23.9813 16.949 21.9103 18.968 21.9631 21.4226C21.9774 22.091 22.2288 22.8582 22.5548 23.5669C22.876 24.2649 23.2437 24.8515 23.4385 25.1445C23.5594 25.3263 23.6653 25.5286 23.7406 25.7521L24.3744 27.6328H28.6244L29.2581 25.7521C29.3334 25.5286 29.4394 25.3263 29.5602 25.1446C29.7551 24.8515 30.1228 24.265 30.4439 23.5669C30.7699 22.8582 31.0213 22.091 31.0356 21.4226C31.0884 18.968 29.0174 16.949 26.4994 16.949ZM28.4434 28.9149H24.5553V29.1285C24.5553 30.1906 25.4257 31.0516 26.4994 31.0516C27.573 31.0516 28.4434 30.1905 28.4434 29.1284V28.9149ZM23.2593 28.3779L22.5111 26.1576C22.4769 26.0561 22.4252 25.9536 22.3558 25.8491C22.1399 25.5245 21.7338 24.8775 21.3752 24.098C21.0215 23.3292 20.6872 22.3749 20.6673 21.4499C20.5983 18.2412 23.2911 15.667 26.4994 15.667C29.7076 15.667 32.4004 18.2412 32.3314 21.4499C32.3115 22.3749 31.9772 23.3292 31.6235 24.098C31.2649 24.8775 30.8588 25.5245 30.643 25.8491C30.5735 25.9536 30.5218 26.0561 30.4877 26.1575L29.7395 28.3779V29.1284C29.7395 30.8985 28.2889 32.3337 26.4994 32.3337C24.7099 32.3337 23.2593 30.8987 23.2593 29.1285V28.3779Z" fill="#111111"/>
<path fill-rule="evenodd" clip-rule="evenodd" d="M26.4994 17.449C24.2429 17.449 22.4166 19.256 22.463 21.4118C22.4752 21.979 22.6938 22.6726 23.0091 23.358C23.3155 24.024 23.6682 24.5869 23.8549 24.8677C23.9958 25.0795 24.123 25.321 24.2145 25.5925L24.7335 27.1328H28.2653L28.7843 25.5925C28.8758 25.321 29.003 25.0796 29.1438 24.8677C29.3305 24.5869 29.6832 24.024 29.9896 23.358C30.305 22.6726 30.5236 21.979 30.5358 21.4118C30.5821 19.256 28.7558 17.449 26.4994 17.449ZM28.6244 27.6328H24.3744L23.7406 25.7521C23.6653 25.5286 23.5594 25.3263 23.4385 25.1445C23.2437 24.8515 22.876 24.2649 22.5548 23.5669C22.2288 22.8582 21.9774 22.091 21.9631 21.4226C21.9103 18.968 23.9813 16.949 26.4994 16.949C29.0174 16.949 31.0884 18.968 31.0356 21.4226C31.0213 22.091 30.7699 22.8582 30.4439 23.5669C30.1228 24.265 29.7551 24.8515 29.5602 25.1446C29.4394 25.3263 29.3334 25.5286 29.2581 25.7521L28.6244 27.6328ZM24.5767 29.4149C24.5626 29.3214 24.5553 29.2258 24.5553 29.1285V28.9149H28.4434V29.1284C28.4434 29.2258 28.4361 29.3214 28.422 29.4149C28.2822 30.3411 27.4746 31.0516 26.4994 31.0516C25.5241 31.0516 24.7165 30.3411 24.5767 29.4149ZM27.9141 29.4149H25.0846C25.2188 30.0604 25.7974 30.5516 26.4994 30.5516C27.2013 30.5516 27.7799 30.0604 27.9141 29.4149ZM22.7593 28.4598L22.0373 26.3172C22.0192 26.2637 21.9888 26.2003 21.9394 26.1259C21.7154 25.7891 21.2943 25.1184 20.921 24.3069C20.5565 23.5146 20.1895 22.4868 20.1674 21.4606C20.092 17.9522 23.0307 15.167 26.4994 15.167C29.968 15.167 32.9067 17.9522 32.8313 21.4606C32.8092 22.4868 32.4423 23.5146 32.0778 24.3069C31.7044 25.1184 31.2833 25.7891 31.0594 26.1259C31.0099 26.2003 30.9795 26.2637 30.9615 26.3172L30.2395 28.4598V29.1284C30.2395 31.1797 28.5599 32.8337 26.4994 32.8337C24.4389 32.8337 22.7593 31.1799 22.7593 29.1285V28.4598ZM23.2593 28.3779L22.5111 26.1576C22.4769 26.0561 22.4252 25.9536 22.3558 25.8491C22.1399 25.5245 21.7338 24.8775 21.3752 24.098C21.0215 23.3292 20.6872 22.3749 20.6673 21.4499C20.5983 18.2412 23.2911 15.667 26.4994 15.667C29.7076 15.667 32.4004 18.2412 32.3314 21.4499C32.3115 22.3749 31.9772 23.3292 31.6235 24.098C31.2649 24.8775 30.8588 25.5245 30.643 25.8491C30.5735 25.9536 30.5218 26.0561 30.4877 26.1575L29.7395 28.3779V29.1284C29.7395 30.8985 28.2889 32.3337 26.4994 32.3337C24.7099 32.3337 23.2593 30.8987 23.2593 29.1285V28.3779Z" fill="#111111"/>
<defs>
<filter id="filter0_d_772_1435" x="2.73828" y="2.21582" width="49.5234" height="45.5684" filterUnits="userSpaceOnUse" color-interpolation-filters="sRGB">
<feFlood flood-opacity="0" result="BackgroundImageFix"/>
<feColorMatrix in="SourceAlpha" type="matrix" values="0 0 0 0 0 0 0 0 0 0 0 0 0 0 0 0 0 0 127 0" result="hardAlpha"/>
<feOffset dx="2" dy="2"/>
<feComposite in2="hardAlpha" operator="out"/>
<feColorMatrix type="matrix" values="0 0 0 0 0.85098 0 0 0 0 0.85098 0 0 0 0 0.85098 0 0 0 1 0"/>
<feBlend mode="normal" in2="BackgroundImageFix" result="effect1_dropShadow_772_1435"/>
<feBlend mode="normal" in="SourceGraphic" in2="effect1_dropShadow_772_1435" result="shape"/>
</filter>
</defs>
</svg>
