<svg width="120" height="40" viewBox="0 0 120 40" fill="none" xmlns="http://www.w3.org/2000/svg">
<g clip-path="url(#clip0_768_4387)">
<path d="M41.1094 27.877C41.1094 27.9175 41.1422 27.9503 41.1827 27.9503H43.9502C43.9907 27.9503 44.0235 27.9175 44.0235 27.877V21.4047H51.7572V27.877C51.7572 27.9175 51.79 27.9503 51.8305 27.9503H54.598C54.6385 27.9503 54.6713 27.9175 54.6713 27.877V12.3321C54.6713 12.2916 54.6385 12.2588 54.598 12.2588H51.8305C51.79 12.2588 51.7572 12.2916 51.7572 12.3321V18.7147H44.0235V12.3321C44.0235 12.2916 43.9907 12.2588 43.9502 12.2588H41.1827C41.1422 12.2588 41.1094 12.2916 41.1094 12.3321V27.877Z" fill="#111111"/>
<path d="M63.232 28.2195C67.0876 28.2195 69.3741 25.395 69.3741 22.3687C69.3741 19.3201 67.0876 16.4956 63.232 16.4956C59.3763 16.4956 57.0898 19.3201 57.0898 22.3687C57.0898 25.395 59.3763 28.2195 63.232 28.2195ZM63.232 18.8494C65.4063 18.8494 66.6168 20.553 66.6168 22.3687C66.6168 24.1845 65.4063 25.8657 63.232 25.8657C61.0576 25.8657 59.8471 24.1845 59.8471 22.3687C59.8471 20.553 61.0576 18.8494 63.232 18.8494Z" fill="#111111"/>
<path d="M74.5979 21.6962C74.5979 20.0823 75.6515 18.9615 77.198 18.9615C78.8795 18.9615 79.597 20.1271 79.597 21.7186V27.8771C79.597 27.9176 79.6297 27.9504 79.6702 27.9504H82.3482C82.3881 27.9504 82.4214 27.9176 82.4214 27.8771V21.2479C82.4214 18.4683 80.919 16.4956 78.2292 16.4956C76.4811 16.4956 75.0238 17.3699 74.5083 18.67V16.8379C74.5083 16.7975 74.4754 16.7647 74.4349 16.7647H71.8468C71.8062 16.7647 71.7734 16.7975 71.7734 16.8379V27.8771C71.7734 27.9176 71.8062 27.9504 71.8468 27.9504H74.5246C74.5651 27.9504 74.5979 27.9176 74.5979 27.8771V21.6962Z" fill="#111111"/>
<path d="M96.4125 23.3102C96.453 23.3102 96.4857 23.2774 96.4857 23.2369V22.3912C96.4857 18.939 94.1318 16.4956 90.6127 16.4956C87.1602 16.4956 84.7168 18.9615 84.7168 22.3463C84.7168 25.6864 86.9361 28.2195 90.7466 28.2195C93.3704 28.2195 95.495 26.7236 96.2896 24.7766C96.3092 24.729 96.2733 24.6776 96.2223 24.6776H93.7462C93.7214 24.6776 93.6979 24.6905 93.6841 24.7116C93.1398 25.5455 92.0961 26.1347 90.7466 26.1347C88.7522 26.1347 87.6758 24.9914 87.4968 23.3102H96.4125ZM90.6571 18.5131C92.4732 18.5131 93.6162 19.7236 93.7959 21.4497H87.4739C87.6981 19.6339 88.909 18.5131 90.6571 18.5131Z" fill="#111111"/>
<path d="M103.163 24.7449L100.222 16.8124C100.211 16.7837 100.184 16.7646 100.153 16.7646H97.3992C97.3476 16.7646 97.3117 16.8175 97.3319 16.8657L101.706 27.5245L99.7067 32.535C99.6871 32.5831 99.7224 32.6355 99.7747 32.6355H102.553C102.583 32.6355 102.61 32.6169 102.621 32.5887L104.464 27.8383L108.973 16.8658C108.992 16.8176 108.957 16.7646 108.905 16.7646H106.129C106.098 16.7646 106.071 16.7839 106.06 16.8128L103.163 24.7449Z" fill="#111111"/>
<path d="M31.0498 17.4401C31.0659 17.4326 31.0867 17.4241 31.1131 17.4162V24.8761C31.1131 25.4528 30.8054 25.9857 30.3059 26.2741L21.8579 31.1516C21.3584 31.4399 20.743 31.4399 20.2435 31.1516L11.7955 26.2741C11.296 25.9857 10.9883 25.4528 10.9883 24.8761V20.2331C11.1185 20.284 11.324 20.4513 11.6348 21.0119C11.7999 21.3099 11.9447 21.6186 12.0953 21.9239C12.2562 22.2502 12.4471 22.626 12.6749 22.9723C13.1296 23.6637 13.902 24.4867 15.1875 24.4867C16.6223 24.4867 17.386 23.3648 17.7877 22.5531C18.2413 21.6367 18.511 20.6451 18.8334 19.6783C19.1632 18.6887 19.4859 17.8756 19.9014 17.3121C20.0923 17.0533 20.2809 16.8754 20.4802 16.7612C20.6765 16.6487 20.8983 16.5894 21.1703 16.5894C21.9038 16.5894 22.3549 16.7998 22.6908 17.0734C23.0639 17.3773 23.366 17.8167 23.6933 18.4001C24.0421 19.0219 24.348 19.6732 24.7857 20.2399C25.2755 20.874 26.0225 21.4952 27.1532 21.4952C28.3789 21.4952 29.1021 20.7184 29.5176 20.0605C29.8814 19.4844 30.1161 18.8431 30.4258 18.2391C30.7012 17.702 30.8985 17.5106 31.0498 17.4401Z" fill="#111111"/>
<path d="M31.1131 15.1212V15.8399C30.4728 15.8941 30.0007 16.1949 29.6371 16.61C29.2377 17.0657 28.9642 17.666 28.72 18.2016L28.7102 18.2231C28.4848 18.7176 28.2845 19.1524 28.0313 19.4688C27.7894 19.7711 27.5214 19.9379 27.1532 19.9379C26.7408 19.9379 26.4325 19.7613 26.1484 19.4447C25.8525 19.1148 25.6043 18.6575 25.3176 18.1253L25.3079 18.1071C24.9469 17.4367 24.5327 16.6674 23.9069 16.071C23.2617 15.4562 22.4011 15.032 21.1703 15.032C19.9082 15.032 19.0657 15.722 18.4655 16.6525C17.8787 17.5623 17.4978 18.7401 17.1531 19.8056L17.1459 19.8279C16.8614 20.7076 16.603 21.502 16.2771 22.0798C15.9513 22.6575 15.6096 22.9293 15.1875 22.9293C14.776 22.9293 14.4654 22.738 14.1829 22.3982C13.8905 22.0466 13.6542 21.5672 13.3948 21.0366L13.3844 21.0154C13.1148 20.464 12.819 19.8589 12.4158 19.4055C12.054 18.9985 11.5951 18.7016 10.9883 18.654V15.1212C10.9883 14.5445 11.296 14.0115 11.7955 13.7232L20.2435 8.84568C20.743 8.5573 21.3584 8.5573 21.8579 8.84568L30.3059 13.7232C30.8054 14.0115 31.1131 14.5445 31.1131 15.1212Z" fill="#E7B400"/>
</g>
<defs>
<clipPath id="clip0_768_4387">
<rect width="98.025" height="25.4211" fill="white" transform="translate(10.9883 7.28955)"/>
</clipPath>
</defs>
</svg>
