<svg width="18" height="18" viewBox="0 0 18 18" fill="none" xmlns="http://www.w3.org/2000/svg">
<path d="M2.47866 16.3044L2.67477 17.285H2.67477L2.47866 16.3044ZM1.86993 16.3544L1.48764 17.2784H1.48764L1.86993 16.3544ZM1.69419 15.5199L2.67477 15.7161L1.69419 15.5199ZM1.64421 16.1287L0.720168 16.511L1.64421 16.1287ZM2.66801 12.0704L1.84779 11.4984L2.66801 12.0704ZM2.01472 13.9173L1.03414 13.7212L2.01472 13.9173ZM2.29892 12.7601L1.36797 12.3949L2.29892 12.7601ZM6.80658 14.5254L6.09948 13.8182L6.80658 14.5254ZM5.92819 15.3306L6.50023 16.1508L5.92819 15.3306ZM4.0813 15.9839L3.88518 15.0033H3.88518L4.0813 15.9839ZM5.23854 15.6997L5.6037 16.6306L5.23854 15.6997ZM15.5553 3.89105L16.2624 3.18394L16.2624 3.18394L15.5553 3.89105ZM16.1121 4.57634L15.1611 4.88536L16.1121 4.57634ZM15.5553 5.77667L16.2624 6.48377L15.5553 5.77667ZM16.1121 5.09137L15.1611 4.78236L16.1121 5.09137ZM14.1076 2.44333L13.4004 3.15044V3.15044L14.1076 2.44333ZM13.4223 1.88649L13.1132 2.83755L13.4223 1.88649ZM12.9072 1.88649L13.2162 2.83755L12.9072 1.88649ZM11.3719 3.29342C10.9813 2.90289 10.3482 2.90289 9.95764 3.29342C9.56711 3.68394 9.56711 4.31711 9.95764 4.70763L11.3719 3.29342ZM13.291 8.04097C13.6815 8.43149 14.3147 8.43149 14.7052 8.04097C15.0957 7.65044 15.0957 7.01728 14.7052 6.62675L13.291 8.04097ZM13.4004 3.15044L14.8482 4.59816L16.2624 3.18394L14.8147 1.73623L13.4004 3.15044ZM14.8482 5.06956L6.09948 13.8182L7.51369 15.2325L16.2624 6.48377L14.8482 5.06956ZM4.18035 11.8991L12.929 3.15044L11.5148 1.73623L2.76614 10.4849L4.18035 11.8991ZM3.88518 15.0033L2.28254 15.3238L2.67477 17.285L4.27741 16.9645L3.88518 15.0033ZM2.67477 15.7161L2.9953 14.1134L1.03414 13.7212L0.713612 15.3238L2.67477 15.7161ZM2.28254 15.3238C2.19811 15.3407 2.1355 15.3532 2.08234 15.3629C2.02878 15.3727 2.00141 15.3765 1.98868 15.3778C1.97536 15.3792 1.99792 15.3757 2.04129 15.3789C2.08927 15.3824 2.16488 15.3942 2.25223 15.4304L1.48764 17.2784C1.77702 17.3982 2.04718 17.383 2.20171 17.3664C2.35417 17.3501 2.52968 17.314 2.67477 17.285L2.28254 15.3238ZM0.713612 15.3238C0.684593 15.4689 0.648491 15.6444 0.632159 15.7969C0.615604 15.9514 0.600443 16.2216 0.720168 16.511L2.56825 15.7464C2.60439 15.8337 2.61621 15.9093 2.61972 15.9573C2.62289 16.0007 2.61935 16.0232 2.62078 16.0099C2.62215 15.9972 2.62594 15.9698 2.6357 15.9163C2.6454 15.8631 2.65789 15.8005 2.67477 15.7161L0.713612 15.3238ZM2.25223 15.4304C2.39535 15.4896 2.50904 15.6033 2.56825 15.7464L0.720168 16.511C0.863962 16.8585 1.14007 17.1346 1.48764 17.2784L2.25223 15.4304ZM2.76614 10.4849C2.36607 10.885 2.07862 11.1674 1.84779 11.4984L3.48823 12.6425C3.59463 12.4899 3.7316 12.3479 4.18035 11.8991L2.76614 10.4849ZM2.9953 14.1134C3.11976 13.4911 3.16195 13.2984 3.22987 13.1252L1.36797 12.3949C1.22062 12.7706 1.1451 13.1664 1.03414 13.7212L2.9953 14.1134ZM1.84779 11.4984C1.65322 11.7773 1.49217 12.0783 1.36797 12.3949L3.22987 13.1252C3.29675 12.9547 3.38346 12.7927 3.48823 12.6425L1.84779 11.4984ZM6.09948 13.8182C5.65072 14.267 5.5087 14.404 5.35614 14.5104L6.50023 16.1508C6.83122 15.92 7.11361 15.6325 7.51369 15.2325L6.09948 13.8182ZM4.27741 16.9645C4.83222 16.8535 5.22803 16.778 5.6037 16.6306L4.87339 14.7687C4.70023 14.8367 4.50749 14.8788 3.88518 15.0033L4.27741 16.9645ZM5.35614 14.5104C5.20592 14.6151 5.04389 14.7019 4.87339 14.7687L5.6037 16.6306C5.92034 16.5064 6.22125 16.3454 6.50023 16.1508L5.35614 14.5104ZM14.8482 4.59816C14.9323 4.68228 14.9984 4.74845 15.0547 4.8065C15.1109 4.86457 15.1473 4.90425 15.1719 4.93328C15.222 4.99226 15.1872 4.96578 15.1611 4.88536L17.0632 4.26733C16.9752 3.99664 16.827 3.79251 16.6966 3.63892C16.5738 3.49426 16.4157 3.33728 16.2624 3.18394L14.8482 4.59816ZM16.2624 6.48377C16.4157 6.33043 16.5738 6.17345 16.6966 6.02879C16.827 5.8752 16.9752 5.67108 17.0632 5.40039L15.1611 4.78236C15.1872 4.70194 15.222 4.67545 15.1719 4.73444C15.1473 4.76347 15.1109 4.80314 15.0547 4.86122C14.9984 4.91927 14.9323 4.98544 14.8482 5.06956L16.2624 6.48377ZM15.1611 4.88536C15.1502 4.85189 15.1502 4.81583 15.1611 4.78236L17.0632 5.40039C17.1828 5.03218 17.1828 4.63554 17.0632 4.26733L15.1611 4.88536ZM14.8147 1.73623C14.6613 1.58289 14.5043 1.42481 14.3597 1.302C14.2061 1.17161 14.002 1.02339 13.7313 0.935433L13.1132 2.83755C13.0328 2.81142 13.0063 2.7766 13.0653 2.82668C13.0944 2.85132 13.134 2.88765 13.1921 2.94393C13.2502 3.00018 13.3163 3.06632 13.4004 3.15044L14.8147 1.73623ZM12.929 3.15044C13.0132 3.06632 13.0793 3.00018 13.1374 2.94393C13.1955 2.88765 13.2351 2.85132 13.2642 2.82668C13.3231 2.7766 13.2967 2.81142 13.2162 2.83755L12.5982 0.935433C12.3275 1.02339 12.1234 1.17161 11.9698 1.302C11.8251 1.42481 11.6682 1.58289 11.5148 1.73623L12.929 3.15044ZM13.7313 0.935433C13.3631 0.815793 12.9664 0.815793 12.5982 0.935433L13.2162 2.83755C13.1828 2.84842 13.1467 2.84842 13.1132 2.83755L13.7313 0.935433ZM9.95764 4.70763L13.291 8.04097L14.7052 6.62675L11.3719 3.29342L9.95764 4.70763Z" fill="#111111" fill-opacity="0.4"/>
</svg>
