<svg width="20" height="20" viewBox="0 0 20 20" fill="none" xmlns="http://www.w3.org/2000/svg">
<g clip-path="url(#clip0_1366_3260)">
<path d="M10 20C15.5228 20 20 15.5228 20 10C20 4.47715 15.5228 0 10 0C4.47715 0 0 4.47715 0 10C0 15.5228 4.47715 20 10 20Z" fill="url(#paint0_linear_1366_3260)"/>
<path d="M16.2015 10.1335H14.6816C14.6816 7.03614 12.162 4.52539 9.05357 4.52539C5.98371 4.52539 3.48786 6.97468 3.42677 10.019C3.36358 13.1658 6.32638 15.8984 9.48479 15.8984H9.88209C12.6666 15.8984 16.3987 13.7263 16.9818 11.0798C17.0895 10.592 16.7028 10.1335 16.2015 10.1335ZM6.79501 10.2715C6.79501 10.6856 6.45503 11.0244 6.03936 11.0244C5.62368 11.0244 5.28373 10.6855 5.28373 10.2715V9.05335C5.28373 8.63917 5.62368 8.3004 6.03936 8.3004C6.45503 8.3004 6.79501 8.63917 6.79501 9.05335V10.2715ZM9.41887 10.2715C9.41887 10.6856 9.07893 11.0244 8.66327 11.0244C8.24757 11.0244 7.90763 10.6855 7.90763 10.2715V9.05335C7.90763 8.63917 8.24772 8.3004 8.66327 8.3004C9.07893 8.3004 9.41887 8.63917 9.41887 9.05335V10.2715Z" fill="url(#paint1_linear_1366_3260)"/>
</g>
<defs>
<linearGradient id="paint0_linear_1366_3260" x1="10" y1="0" x2="10" y2="20" gradientUnits="userSpaceOnUse">
<stop stop-color="#534BB1"/>
<stop offset="1" stop-color="#551BF9"/>
</linearGradient>
<linearGradient id="paint1_linear_1366_3260" x1="10.2128" y1="4.52539" x2="10.2128" y2="15.8984" gradientUnits="userSpaceOnUse">
<stop stop-color="white"/>
<stop offset="1" stop-color="white" stop-opacity="0.82"/>
</linearGradient>
<clipPath id="clip0_1366_3260">
<rect width="20" height="20" fill="white"/>
</clipPath>
</defs>
</svg>
