<svg width="12" height="12" viewBox="0 0 12 12" fill="none" xmlns="http://www.w3.org/2000/svg">
<path fill-rule="evenodd" clip-rule="evenodd" d="M6.06479 5.19745C6.15957 5.07965 6.23147 4.98667 6.28663 4.90096C6.3205 4.84832 6.34024 4.78611 6.34024 4.71717C6.34024 4.52882 6.18756 4.37614 5.99922 4.37614C5.81088 4.37614 5.65819 4.52882 5.65819 4.71717C5.65819 5.09527 5.35168 5.40178 4.97358 5.40178C4.59547 5.40178 4.28896 5.09527 4.28896 4.71717C4.28896 3.77262 5.05467 3.00691 5.99922 3.00691C6.94377 3.00691 7.70948 3.77262 7.70948 4.71717C7.70948 5.05663 7.60987 5.3749 7.43808 5.64188C7.34001 5.79428 7.22746 5.93663 7.13156 6.05582L7.07962 6.12019C6.99935 6.21954 6.93146 6.30368 6.86943 6.38894C6.71229 6.60491 6.68383 6.71085 6.68383 6.76845C6.68383 7.14655 6.37732 7.45306 5.99922 7.45306C5.62112 7.45306 5.3146 7.14655 5.3146 6.76845C5.3146 6.25987 5.56416 5.85562 5.76226 5.58336C5.84661 5.46742 5.93811 5.35425 6.01645 5.25733L6.06479 5.19745ZM0.699219 5.99922C0.699219 3.07211 3.07211 0.699219 5.99922 0.699219C8.92633 0.699219 11.2992 3.07211 11.2992 5.99922C11.2992 8.92633 8.92633 11.2992 5.99922 11.2992C3.07211 11.2992 0.699219 8.92633 0.699219 5.99922ZM6.81204 8.30691C6.81204 8.75582 6.44813 9.11973 5.99922 9.11973C5.55031 9.11973 5.1864 8.75582 5.1864 8.30691C5.1864 7.858 5.55031 7.49409 5.99922 7.49409C6.44813 7.49409 6.81204 7.858 6.81204 8.30691Z" fill="#BE9200"/>
<path fill-rule="evenodd" clip-rule="evenodd" d="M6.28663 4.90096C6.23147 4.98667 6.15957 5.07965 6.06479 5.19745L6.01645 5.25733C5.93811 5.35425 5.84661 5.46742 5.76226 5.58336C5.56416 5.85562 5.3146 6.25987 5.3146 6.76845C5.3146 7.14655 5.62112 7.45306 5.99922 7.45306C6.37732 7.45306 6.68383 7.14655 6.68383 6.76845C6.68383 6.71085 6.71229 6.60491 6.86943 6.38894C6.93146 6.30368 6.99935 6.21954 7.07962 6.12019L7.13156 6.05582C7.22746 5.93663 7.34001 5.79428 7.43808 5.64188C7.60987 5.3749 7.70948 5.05663 7.70948 4.71717C7.70948 3.77262 6.94377 3.00691 5.99922 3.00691C5.05467 3.00691 4.28896 3.77262 4.28896 4.71717C4.28896 5.09527 4.59547 5.40178 4.97358 5.40178C5.35168 5.40178 5.65819 5.09527 5.65819 4.71717C5.65819 4.52882 5.81088 4.37614 5.99922 4.37614C6.18756 4.37614 6.34024 4.52882 6.34024 4.71717C6.34024 4.78611 6.3205 4.84832 6.28663 4.90096ZM5.99922 4.07614C5.64519 4.07614 5.35819 4.36314 5.35819 4.71717C5.35819 4.92958 5.18599 5.10178 4.97358 5.10178C4.76116 5.10178 4.58896 4.92958 4.58896 4.71717C4.58896 3.9383 5.22036 3.30691 5.99922 3.30691C6.77808 3.30691 7.40948 3.9383 7.40948 4.71717C7.40948 4.99734 7.32738 5.25951 7.18579 5.47954C7.09711 5.61736 6.99344 5.74893 6.89783 5.86775L6.84627 5.93166C6.76695 6.02984 6.69413 6.11996 6.62685 6.21244C6.46091 6.4405 6.38383 6.61188 6.38383 6.76845C6.38383 6.98087 6.21164 7.15306 5.99922 7.15306C5.7868 7.15306 5.6146 6.98087 5.6146 6.76845C5.6146 6.35857 5.81584 6.01961 6.00484 5.75986C6.0847 5.6501 6.17221 5.54185 6.25179 5.44342L6.29852 5.38552C6.39349 5.26749 6.47434 5.16365 6.53891 5.0633C6.60302 4.96367 6.64024 4.84535 6.64024 4.71717C6.64024 4.36314 6.35325 4.07614 5.99922 4.07614Z" fill="#BE9200"/>
<path fill-rule="evenodd" clip-rule="evenodd" d="M5.99922 9.11973C6.44813 9.11973 6.81204 8.75582 6.81204 8.30691C6.81204 7.858 6.44813 7.49409 5.99922 7.49409C5.55031 7.49409 5.1864 7.858 5.1864 8.30691C5.1864 8.75582 5.55031 9.11973 5.99922 9.11973ZM5.99922 8.81973C6.28244 8.81973 6.51204 8.59013 6.51204 8.30691C6.51204 8.02369 6.28244 7.79409 5.99922 7.79409C5.716 7.79409 5.4864 8.02369 5.4864 8.30691C5.4864 8.59013 5.716 8.81973 5.99922 8.81973Z" fill="#BE9200"/>
</svg>
