<svg width="12" height="12" viewBox="0 0 12 12" fill="none" xmlns="http://www.w3.org/2000/svg">
<g clip-path="url(#clip0_2291_83393)">
<path fill-rule="evenodd" clip-rule="evenodd" d="M6.06479 5.19818C6.15957 5.08039 6.23147 4.98741 6.28663 4.90169C6.3205 4.84906 6.34024 4.78684 6.34024 4.7179C6.34024 4.52956 6.18756 4.37687 5.99922 4.37687C5.81088 4.37687 5.65819 4.52956 5.65819 4.7179C5.65819 5.096 5.35168 5.40251 4.97358 5.40251C4.59547 5.40251 4.28896 5.096 4.28896 4.7179C4.28896 3.77335 5.05467 3.00764 5.99922 3.00764C6.94377 3.00764 7.70948 3.77335 7.70948 4.7179C7.70948 5.05736 7.60987 5.37564 7.43808 5.64261C7.34001 5.79501 7.22746 5.93737 7.13156 6.05655L7.07962 6.12093C6.99935 6.22028 6.93146 6.30441 6.86943 6.38967C6.71229 6.60564 6.68383 6.71158 6.68383 6.76918C6.68383 7.14728 6.37732 7.4538 5.99922 7.4538C5.62112 7.4538 5.3146 7.14728 5.3146 6.76918C5.3146 6.2606 5.56416 5.85635 5.76226 5.58409C5.84661 5.46815 5.93811 5.35498 6.01645 5.25807L6.06479 5.19818ZM0.699219 5.99995C0.699219 3.07284 3.07211 0.699951 5.99922 0.699951C8.92633 0.699951 11.2992 3.07284 11.2992 5.99995C11.2992 8.92706 8.92633 11.3 5.99922 11.3C3.07211 11.3 0.699219 8.92706 0.699219 5.99995ZM6.81204 8.30764C6.81204 8.75655 6.44813 9.12046 5.99922 9.12046C5.55031 9.12046 5.1864 8.75655 5.1864 8.30764C5.1864 7.85873 5.55031 7.49482 5.99922 7.49482C6.44813 7.49482 6.81204 7.85873 6.81204 8.30764Z" fill="#111111" fill-opacity="0.4"/>
<path fill-rule="evenodd" clip-rule="evenodd" d="M6.28663 4.90169C6.23147 4.98741 6.15957 5.08039 6.06479 5.19818L6.01645 5.25807C5.93811 5.35498 5.84661 5.46815 5.76226 5.58409C5.56416 5.85635 5.3146 6.2606 5.3146 6.76918C5.3146 7.14728 5.62112 7.4538 5.99922 7.4538C6.37732 7.4538 6.68383 7.14728 6.68383 6.76918C6.68383 6.71158 6.71229 6.60564 6.86943 6.38967C6.93146 6.30441 6.99935 6.22028 7.07962 6.12093L7.13156 6.05655C7.22746 5.93737 7.34001 5.79501 7.43808 5.64261C7.60987 5.37564 7.70948 5.05736 7.70948 4.7179C7.70948 3.77335 6.94377 3.00764 5.99922 3.00764C5.05467 3.00764 4.28896 3.77335 4.28896 4.7179C4.28896 5.096 4.59547 5.40251 4.97358 5.40251C5.35168 5.40251 5.65819 5.096 5.65819 4.7179C5.65819 4.52956 5.81088 4.37687 5.99922 4.37687C6.18756 4.37687 6.34024 4.52956 6.34024 4.7179C6.34024 4.78684 6.3205 4.84906 6.28663 4.90169ZM5.99922 4.07687C5.64519 4.07687 5.35819 4.36387 5.35819 4.7179C5.35819 4.93032 5.18599 5.10252 4.97358 5.10252C4.76116 5.10252 4.58896 4.93032 4.58896 4.7179C4.58896 3.93904 5.22036 3.30764 5.99922 3.30764C6.77808 3.30764 7.40948 3.93904 7.40948 4.7179C7.40948 4.99807 7.32738 5.26024 7.18579 5.48028C7.09711 5.61809 6.99344 5.74966 6.89783 5.86848L6.84627 5.93239C6.76695 6.03057 6.69413 6.12069 6.62685 6.21317C6.46091 6.44123 6.38383 6.61262 6.38383 6.76918C6.38383 6.9816 6.21164 7.1538 5.99922 7.1538C5.7868 7.1538 5.6146 6.9816 5.6146 6.76918C5.6146 6.3593 5.81584 6.02035 6.00484 5.76059C6.0847 5.65084 6.17221 5.54258 6.25179 5.44415L6.29852 5.38625C6.39349 5.26822 6.47434 5.16439 6.53891 5.06403C6.60302 4.96441 6.64024 4.84609 6.64024 4.7179C6.64024 4.36387 6.35325 4.07687 5.99922 4.07687Z" fill="#111111" fill-opacity="0.4"/>
<path fill-rule="evenodd" clip-rule="evenodd" d="M5.99922 9.12046C6.44813 9.12046 6.81204 8.75655 6.81204 8.30764C6.81204 7.85873 6.44813 7.49482 5.99922 7.49482C5.55031 7.49482 5.1864 7.85873 5.1864 8.30764C5.1864 8.75655 5.55031 9.12046 5.99922 9.12046ZM5.99922 8.82046C6.28244 8.82046 6.51204 8.59087 6.51204 8.30764C6.51204 8.02442 6.28244 7.79482 5.99922 7.79482C5.716 7.79482 5.4864 8.02442 5.4864 8.30764C5.4864 8.59087 5.716 8.82046 5.99922 8.82046Z" fill="#111111" fill-opacity="0.4"/>
</g>
<defs>
<clipPath id="clip0_2291_83393">
<rect width="12" height="12" fill="white"/>
</clipPath>
</defs>
</svg>
