<svg width="12" height="12" viewBox="0 0 12 12" fill="none" xmlns="http://www.w3.org/2000/svg">
<g clip-path="url(#clip0_1980_18432)">
<path fill-rule="evenodd" clip-rule="evenodd" d="M6.06562 5.19843C6.1604 5.08063 6.2323 4.98765 6.28745 4.90194C6.32132 4.8493 6.34107 4.78709 6.34107 4.71814C6.34107 4.5298 6.18839 4.37712 6.00004 4.37712C5.8117 4.37712 5.65902 4.5298 5.65902 4.71814C5.65902 5.09625 5.3525 5.40276 4.9744 5.40276C4.5963 5.40276 4.28979 5.09625 4.28979 4.71814C4.28979 3.7736 5.05549 3.00789 6.00004 3.00789C6.94459 3.00789 7.7103 3.7736 7.7103 4.71814C7.7103 5.05761 7.61069 5.37588 7.4389 5.64286C7.34084 5.79525 7.22829 5.93761 7.13239 6.05679L7.08045 6.12117C7.00018 6.22052 6.93229 6.30466 6.87025 6.38992C6.71311 6.60588 6.68466 6.71183 6.68466 6.76943C6.68466 7.14753 6.37815 7.45404 6.00004 7.45404C5.62194 7.45404 5.31543 7.14753 5.31543 6.76943C5.31543 6.26085 5.56498 5.85659 5.76308 5.58433C5.84744 5.46839 5.93893 5.35522 6.01727 5.25831L6.06562 5.19843ZM0.700043 6.0002C0.700043 3.07309 3.07293 0.700195 6.00004 0.700195C8.92715 0.700195 11.3 3.07309 11.3 6.0002C11.3 8.9273 8.92715 11.3002 6.00004 11.3002C3.07293 11.3002 0.700043 8.9273 0.700043 6.0002ZM6.81286 8.30789C6.81286 8.7568 6.44895 9.12071 6.00004 9.12071C5.55113 9.12071 5.18722 8.7568 5.18722 8.30789C5.18722 7.85898 5.55114 7.49507 6.00004 7.49507C6.44895 7.49507 6.81286 7.85898 6.81286 8.30789Z" fill="#111111" fill-opacity="0.4"/>
<path fill-rule="evenodd" clip-rule="evenodd" d="M6.28745 4.90194C6.2323 4.98765 6.1604 5.08063 6.06562 5.19843L6.01727 5.25831C5.93893 5.35522 5.84744 5.46839 5.76308 5.58433C5.56498 5.85659 5.31543 6.26085 5.31543 6.76943C5.31543 7.14753 5.62194 7.45404 6.00004 7.45404C6.37815 7.45404 6.68466 7.14753 6.68466 6.76943C6.68466 6.71183 6.71311 6.60588 6.87025 6.38992C6.93229 6.30466 7.00018 6.22052 7.08045 6.12117L7.13239 6.05679C7.22829 5.93761 7.34084 5.79525 7.4389 5.64286C7.61069 5.37588 7.7103 5.05761 7.7103 4.71814C7.7103 3.7736 6.94459 3.00789 6.00004 3.00789C5.05549 3.00789 4.28979 3.7736 4.28979 4.71814C4.28979 5.09625 4.5963 5.40276 4.9744 5.40276C5.3525 5.40276 5.65902 5.09625 5.65902 4.71814C5.65902 4.5298 5.8117 4.37712 6.00004 4.37712C6.18839 4.37712 6.34107 4.5298 6.34107 4.71814C6.34107 4.78709 6.32132 4.8493 6.28745 4.90194ZM6.00004 4.07712C5.64601 4.07712 5.35902 4.36412 5.35902 4.71814C5.35902 4.93056 5.18682 5.10276 4.9744 5.10276C4.76198 5.10276 4.58979 4.93056 4.58979 4.71814C4.58979 3.93928 5.22118 3.30789 6.00004 3.30789C6.77891 3.30789 7.4103 3.93928 7.4103 4.71814C7.4103 4.99832 7.3282 5.26049 7.18662 5.48052C7.09794 5.61834 6.99426 5.74991 6.89866 5.86872L6.84709 5.93263C6.76777 6.03081 6.69496 6.12094 6.62767 6.21341C6.46173 6.44147 6.38466 6.61286 6.38466 6.76943C6.38466 6.98184 6.21246 7.15404 6.00004 7.15404C5.78763 7.15404 5.61543 6.98184 5.61543 6.76943C5.61543 6.35955 5.81666 6.02059 6.00566 5.76084C6.08552 5.65108 6.17304 5.54283 6.25261 5.4444L6.29935 5.3865C6.39432 5.26847 6.47516 5.16463 6.53974 5.06427C6.60384 4.96465 6.64107 4.84633 6.64107 4.71814C6.64107 4.36412 6.35407 4.07712 6.00004 4.07712Z" fill="#111111" fill-opacity="0.4"/>
<path fill-rule="evenodd" clip-rule="evenodd" d="M6.00004 9.12071C6.44895 9.12071 6.81286 8.7568 6.81286 8.30789C6.81286 7.85898 6.44895 7.49507 6.00004 7.49507C5.55114 7.49507 5.18722 7.85898 5.18722 8.30789C5.18722 8.7568 5.55113 9.12071 6.00004 9.12071ZM6.00004 8.82071C6.28327 8.82071 6.51286 8.59111 6.51286 8.30789C6.51286 8.02466 6.28327 7.79507 6.00004 7.79507C5.71682 7.79507 5.48722 8.02466 5.48722 8.30789C5.48722 8.59111 5.71682 8.82071 6.00004 8.82071Z" fill="#111111" fill-opacity="0.4"/>
</g>
<defs>
<clipPath id="clip0_1980_18432">
<rect width="12" height="12" fill="white"/>
</clipPath>
</defs>
</svg>
