<svg width="11" height="11" viewBox="0 0 11 11" fill="none" xmlns="http://www.w3.org/2000/svg">
<path fill-rule="evenodd" clip-rule="evenodd" d="M3.85632 2.22698C4.5296 1.94912 5.28095 1.92557 5.9703 2.16073C6.15812 2.2248 6.33784 2.30688 6.50728 2.40517C5.99933 2.4528 5.60181 2.88036 5.60181 3.40076C5.60181 3.95305 6.04952 4.40076 6.60181 4.40076H9.00259C9.55487 4.40076 10.0026 3.95305 10.0026 3.40076V1C10.0026 0.447716 9.55487 1.86554e-08 9.00259 1.86554e-08C8.4503 1.86554e-08 8.00259 0.447715 8.00259 1V1.00063C7.5851 0.687434 7.1179 0.439041 6.61602 0.267835C5.4673 -0.124026 4.21527 -0.0847858 3.09334 0.378241C1.97141 0.841267 1.05614 1.69648 0.518151 2.78446C-0.0198338 3.87243 -0.143818 5.11892 0.169312 6.29156C0.482443 7.46419 1.21132 8.48294 2.22006 9.15789C3.2288 9.83285 4.44857 10.1179 5.65197 9.96004C6.85538 9.80214 7.96031 9.212 8.76077 8.29965C9.125 7.8845 9.08373 7.25268 8.66858 6.88845C8.25343 6.52421 7.62161 6.56548 7.25737 6.98063C6.77701 7.52814 6.11394 7.88228 5.39177 7.97704C4.6696 8.0718 3.93761 7.90071 3.33226 7.49567C2.72691 7.09062 2.28952 6.47927 2.10161 5.77557C1.9137 5.07188 1.9881 4.32386 2.31094 3.67096C2.63379 3.01807 3.18305 2.50485 3.85632 2.22698Z" fill="#111111" fill-opacity="0.4"/>
</svg>
