<svg width="18" height="18" viewBox="0 0 18 18" fill="none" xmlns="http://www.w3.org/2000/svg">
<path fill-rule="evenodd" clip-rule="evenodd" d="M8.572 1.94904C4.913 1.94904 1.94807 4.91162 1.94807 8.56459C1.94807 12.2176 4.913 15.1801 8.572 15.1801C10.3975 15.1801 12.0493 14.4435 13.248 13.2503C14.4521 12.0517 15.1959 10.3955 15.1959 8.56459C15.1959 4.91162 12.231 1.94904 8.572 1.94904ZM0.666016 8.56459C0.666016 4.20217 4.20634 0.666992 8.572 0.666992C12.9377 0.666992 16.478 4.20217 16.478 8.56459C16.478 10.5191 15.7666 12.3084 14.5896 13.687L17.1447 16.2391C17.3951 16.4893 17.3954 16.8952 17.1452 17.1456C16.895 17.3961 16.4891 17.3964 16.2386 17.1462L13.6812 14.5917C12.3035 15.758 10.5195 16.4622 8.572 16.4622C4.20634 16.4622 0.666016 12.927 0.666016 8.56459Z" fill="#111111"/>
<path fill-rule="evenodd" clip-rule="evenodd" d="M8.572 2.44904C5.18862 2.44904 2.44807 5.18829 2.44807 8.56459C2.44807 11.9409 5.18862 14.6801 8.572 14.6801C10.2601 14.6801 11.7865 13.9996 12.8952 12.896C14.009 11.7873 14.6959 10.2571 14.6959 8.56459C14.6959 5.18829 11.9554 2.44904 8.572 2.44904ZM0.166016 8.56459C0.166016 3.92547 3.93076 0.166992 8.572 0.166992C13.2132 0.166992 16.978 3.92547 16.978 8.56459C16.978 10.4761 16.3376 12.2398 15.2611 13.651L17.498 15.8853C17.9439 16.3307 17.9443 17.0531 17.4989 17.499C17.0536 17.9448 16.3312 17.9453 15.8853 17.4999L13.6443 15.2615C12.2348 16.3284 10.4765 16.9622 8.572 16.9622C3.93076 16.9622 0.166016 13.2037 0.166016 8.56459ZM13.6812 14.5917L16.2386 17.1462C16.4891 17.3964 16.895 17.3961 17.1452 17.1456C17.3954 16.8952 17.3951 16.4893 17.1447 16.2391L14.5896 13.687C15.7666 12.3084 16.478 10.5191 16.478 8.56459C16.478 4.20217 12.9377 0.666992 8.572 0.666992C4.20634 0.666992 0.666016 4.20217 0.666016 8.56459C0.666016 12.927 4.20634 16.4622 8.572 16.4622C10.5195 16.4622 12.3035 15.758 13.6812 14.5917ZM1.94807 8.56459C1.94807 4.91162 4.913 1.94904 8.572 1.94904C12.231 1.94904 15.1959 4.91162 15.1959 8.56459C15.1959 10.3955 14.4521 12.0517 13.248 13.2503C12.0493 14.4435 10.3975 15.1801 8.572 15.1801C4.913 15.1801 1.94807 12.2176 1.94807 8.56459Z" fill="#111111"/>
</svg>
