<svg width="20" height="20" viewBox="0 0 20 20" fill="none" xmlns="http://www.w3.org/2000/svg">
<path d="M5.11706 9.88328L2.80039 12.2083C2.64206 12.375 2.64206 12.6333 2.80039 12.8L5.11706 15.125C5.37539 15.3916 5.82539 15.2 5.82539 14.8333V13.3333H10.8337C11.2921 13.3333 11.6671 12.9583 11.6671 12.5C11.6671 12.0416 11.2921 11.6666 10.8337 11.6666H5.82539V10.175C5.82539 9.79995 5.37539 9.61662 5.11706 9.88328ZM17.2087 7.20828L14.8921 4.88328C14.6337 4.61662 14.1837 4.80828 14.1837 5.17495V6.66662H9.16706C8.70872 6.66662 8.33372 7.04162 8.33372 7.49995C8.33372 7.95828 8.70872 8.33328 9.16706 8.33328H14.1754V9.82495C14.1754 10.2 14.6254 10.3833 14.8837 10.1166L17.2004 7.79162C17.3671 7.63328 17.3671 7.36662 17.2087 7.20828Z" fill="#BE9200"/>
</svg>
