<svg width="12" height="12" viewBox="0 0 12 12" fill="none" xmlns="http://www.w3.org/2000/svg">
<path fill-rule="evenodd" clip-rule="evenodd" d="M6.06552 5.19745C6.16031 5.07965 6.23221 4.98667 6.28736 4.90096C6.32123 4.84832 6.34098 4.78611 6.34098 4.71717C6.34098 4.52882 6.18829 4.37614 5.99995 4.37614C5.81161 4.37614 5.65893 4.52882 5.65893 4.71717C5.65893 5.09527 5.35241 5.40178 4.97431 5.40178C4.59621 5.40178 4.28969 5.09527 4.28969 4.71717C4.28969 3.77262 5.0554 3.00691 5.99995 3.00691C6.9445 3.00691 7.71021 3.77262 7.71021 4.71717C7.71021 5.05663 7.6106 5.3749 7.43881 5.64188C7.34075 5.79428 7.2282 5.93663 7.1323 6.05582L7.08035 6.12019C7.00009 6.21954 6.93219 6.30368 6.87016 6.38894C6.71302 6.60491 6.68457 6.71085 6.68457 6.76845C6.68457 7.14655 6.37805 7.45306 5.99995 7.45306C5.62185 7.45306 5.31534 7.14655 5.31534 6.76845C5.31534 6.25987 5.56489 5.85562 5.76299 5.58336C5.84735 5.46742 5.93884 5.35425 6.01718 5.25733L6.06552 5.19745ZM0.699951 5.99922C0.699951 3.07211 3.07284 0.699219 5.99995 0.699219C8.92706 0.699219 11.3 3.07211 11.3 5.99922C11.3 8.92633 8.92706 11.2992 5.99995 11.2992C3.07284 11.2992 0.699951 8.92633 0.699951 5.99922ZM6.81277 8.30691C6.81277 8.75582 6.44886 9.11973 5.99995 9.11973C5.55104 9.11973 5.18713 8.75582 5.18713 8.30691C5.18713 7.858 5.55104 7.49409 5.99995 7.49409C6.44886 7.49409 6.81277 7.858 6.81277 8.30691Z" fill="#111111" fill-opacity="0.4"/>
<path fill-rule="evenodd" clip-rule="evenodd" d="M6.28736 4.90096C6.23221 4.98667 6.16031 5.07965 6.06552 5.19745L6.01718 5.25733C5.93884 5.35425 5.84735 5.46742 5.76299 5.58336C5.56489 5.85562 5.31534 6.25987 5.31534 6.76845C5.31534 7.14655 5.62185 7.45306 5.99995 7.45306C6.37805 7.45306 6.68457 7.14655 6.68457 6.76845C6.68457 6.71085 6.71302 6.60491 6.87016 6.38894C6.93219 6.30368 7.00009 6.21954 7.08035 6.12019L7.1323 6.05582C7.2282 5.93663 7.34075 5.79428 7.43881 5.64188C7.6106 5.3749 7.71021 5.05663 7.71021 4.71717C7.71021 3.77262 6.9445 3.00691 5.99995 3.00691C5.0554 3.00691 4.28969 3.77262 4.28969 4.71717C4.28969 5.09527 4.59621 5.40178 4.97431 5.40178C5.35241 5.40178 5.65893 5.09527 5.65893 4.71717C5.65893 4.52882 5.81161 4.37614 5.99995 4.37614C6.18829 4.37614 6.34098 4.52882 6.34098 4.71717C6.34098 4.78611 6.32123 4.84832 6.28736 4.90096ZM5.99995 4.07614C5.64592 4.07614 5.35893 4.36314 5.35893 4.71717C5.35893 4.92958 5.18673 5.10178 4.97431 5.10178C4.76189 5.10178 4.58969 4.92958 4.58969 4.71717C4.58969 3.9383 5.22109 3.30691 5.99995 3.30691C6.77881 3.30691 7.41021 3.9383 7.41021 4.71717C7.41021 4.99734 7.32811 5.25951 7.18653 5.47954C7.09785 5.61736 6.99417 5.74893 6.89856 5.86775L6.847 5.93166C6.76768 6.02984 6.69486 6.11996 6.62758 6.21244C6.46164 6.4405 6.38457 6.61188 6.38457 6.76845C6.38457 6.98087 6.21237 7.15306 5.99995 7.15306C5.78753 7.15306 5.61534 6.98087 5.61534 6.76845C5.61534 6.35857 5.81657 6.01961 6.00557 5.75986C6.08543 5.6501 6.17294 5.54185 6.25252 5.44342L6.29925 5.38552C6.39422 5.26749 6.47507 5.16365 6.53964 5.0633C6.60375 4.96367 6.64098 4.84535 6.64098 4.71717C6.64098 4.36314 6.35398 4.07614 5.99995 4.07614Z" fill="#111111" fill-opacity="0.4"/>
<path fill-rule="evenodd" clip-rule="evenodd" d="M5.99995 9.11973C6.44886 9.11973 6.81277 8.75582 6.81277 8.30691C6.81277 7.858 6.44886 7.49409 5.99995 7.49409C5.55104 7.49409 5.18713 7.858 5.18713 8.30691C5.18713 8.75582 5.55104 9.11973 5.99995 9.11973ZM5.99995 8.81973C6.28317 8.81973 6.51277 8.59013 6.51277 8.30691C6.51277 8.02369 6.28317 7.79409 5.99995 7.79409C5.71673 7.79409 5.48713 8.02369 5.48713 8.30691C5.48713 8.59013 5.71673 8.81973 5.99995 8.81973Z" fill="#111111" fill-opacity="0.4"/>
</svg>
