<svg width="20" height="20" viewBox="0 0 20 20" fill="none" xmlns="http://www.w3.org/2000/svg">
<path fill-rule="evenodd" clip-rule="evenodd" d="M8 1C7.44772 1 7 1.44772 7 2C7 2.55228 7.44772 3 8 3H12C12.5523 3 13 2.55228 13 2C13 1.44772 12.5523 1 12 1H8ZM3 4C2.44772 4 2 4.44772 2 5C2 5.55228 2.44772 6 3 6H3.07397L3.66203 13.6448L3.66506 13.6842C3.72257 14.432 3.77018 15.0511 3.84923 15.5549C3.93155 16.0797 4.05843 16.5588 4.31676 17.0048C4.71911 17.6995 5.32119 18.257 6.04469 18.6049C6.50919 18.8283 6.99663 18.918 7.52616 18.9599C8.03456 19 8.65544 19 9.4054 19H9.40551H9.44495H10.5551H10.5945H10.5946C11.3446 19 11.9654 19 12.4738 18.9599C13.0034 18.918 13.4908 18.8283 13.9553 18.6049C14.6788 18.257 15.2809 17.6995 15.6832 17.0048C15.9416 16.5588 16.0684 16.0797 16.1508 15.5549C16.2298 15.0511 16.2774 14.432 16.3349 13.6842L16.338 13.6448L16.926 6H17C17.5523 6 18 5.55228 18 5C18 4.44772 17.5523 4 17 4H16H4H3ZM5.65614 13.4914L5.07988 6H14.9201L14.3439 13.4914C14.2825 14.2885 14.2403 14.8284 14.1749 15.2449C14.1115 15.6493 14.037 15.8567 13.9526 16.0024C13.7514 16.3497 13.4504 16.6285 13.0886 16.8025C12.9369 16.8754 12.7244 16.9338 12.3163 16.9661C11.896 16.9993 11.3544 17 10.5551 17H9.44495C8.64556 17 8.104 16.9993 7.68369 16.9661C7.27561 16.9338 7.06314 16.8754 6.91139 16.8025C6.54964 16.6285 6.2486 16.3497 6.04742 16.0024C5.96303 15.8567 5.8885 15.6493 5.82506 15.2449C5.75971 14.8284 5.71745 14.2885 5.65614 13.4914Z" fill="#111111" fill-opacity="0.4"/>
</svg>
