<svg width="20" height="20" viewBox="0 0 20 20" fill="none" xmlns="http://www.w3.org/2000/svg">
<g clip-path="url(#clip0_3662_20359)">
<path d="M10 20C15.5417 20 20 15.5417 20 10C20 4.4583 15.5417 0 10 0C4.4583 0 0 4.4583 0 10C0 15.5417 4.4583 20 10 20Z" fill="#2775CA"/>
<path d="M12.7493 11.582C12.7493 10.1237 11.8743 9.62373 10.1243 9.41543C8.87432 9.24873 8.62432 8.91543 8.62432 8.33203C8.62432 7.74863 9.04102 7.37373 9.87432 7.37373C10.6243 7.37373 11.041 7.62373 11.2493 8.24873C11.291 8.37373 11.416 8.45703 11.541 8.45703H12.2076C12.3743 8.45703 12.4993 8.33203 12.4993 8.16543V8.12373C12.3326 7.20703 11.5826 6.49873 10.6243 6.41543V5.41543C10.6243 5.24873 10.4993 5.12373 10.291 5.08203H9.66602C9.49932 5.08203 9.37432 5.20703 9.33262 5.41543V6.37373C8.08262 6.54043 7.29102 7.37373 7.29102 8.41543C7.29102 9.79043 8.12432 10.332 9.87432 10.5404C11.041 10.7487 11.416 10.9987 11.416 11.6654C11.416 12.3321 10.8326 12.7904 10.041 12.7904C8.95762 12.7904 8.58262 12.332 8.45762 11.707C8.41602 11.5404 8.29102 11.457 8.16602 11.457H7.45762C7.29102 11.457 7.16602 11.582 7.16602 11.7487V11.7904C7.33262 12.832 7.99932 13.582 9.37432 13.7904V14.7904C9.37432 14.957 9.49932 15.082 9.70762 15.1237H10.3326C10.4993 15.1237 10.6243 14.9987 10.666 14.7904V13.7904C11.916 13.582 12.7493 12.707 12.7493 11.582Z" fill="white"/>
<path d="M7.87581 15.9596C4.62581 14.793 2.95911 11.168 4.16751 7.95957C4.79251 6.20957 6.16751 4.87627 7.87581 4.25127C8.04251 4.16797 8.12581 4.04297 8.12581 3.83457V3.25127C8.12581 3.08457 8.04251 2.95957 7.87581 2.91797C7.83411 2.91797 7.75081 2.91797 7.70911 2.95957C3.75081 4.20957 1.58411 8.41797 2.83411 12.3763C3.58411 14.7096 5.37581 16.5013 7.70911 17.2513C7.87581 17.3346 8.04251 17.2513 8.08411 17.0846C8.12581 17.043 8.12581 17.0013 8.12581 16.918V16.3346C8.12581 16.2096 8.00081 16.043 7.87581 15.9596ZM12.2925 2.95957C12.1258 2.87627 11.9591 2.95957 11.9175 3.12627C11.8758 3.16797 11.8758 3.20957 11.8758 3.29297V3.87627C11.8758 4.04297 12.0008 4.20957 12.1258 4.29297C15.3758 5.45957 17.0425 9.08457 15.8341 12.293C15.2091 14.043 13.8341 15.3763 12.1258 16.0013C11.9591 16.0846 11.8758 16.2096 11.8758 16.418V17.0013C11.8758 17.168 11.9591 17.293 12.1258 17.3346C12.1675 17.3346 12.2508 17.3346 12.2925 17.293C16.2508 16.043 18.4175 11.8346 17.1675 7.87627C16.4175 5.50127 14.5841 3.70957 12.2925 2.95957Z" fill="white"/>
</g>
<defs>
<clipPath id="clip0_3662_20359">
<rect width="20" height="20" fill="white"/>
</clipPath>
</defs>
</svg>
