<svg width="24" height="25" viewBox="0 0 24 25" fill="none" xmlns="http://www.w3.org/2000/svg">
<g clip-path="url(#clip0_1656_3214)">
<path d="M2.71158 7.61391L1.25125 10.143C0.238806 11.8964 0.238806 14.0567 1.25125 15.8101L2.71158 18.3392L2.7116 18.3392L4.17167 20.8685C5.18394 22.622 7.05487 23.7021 9.07958 23.702L12 23.7019H12L14.9204 23.702C16.9451 23.7021 18.8161 22.622 19.8283 20.8685L21.2884 18.3392L21.2884 18.3392L22.7488 15.8101C23.7612 14.0567 23.7612 11.8964 22.7488 10.143L21.2884 7.61391L21.2884 7.61388L19.8283 5.08466C18.8161 3.33116 16.9451 2.25098 14.9204 2.25108L12 2.25123H12L9.07958 2.25108C7.05487 2.25098 5.18394 3.33116 4.17167 5.08466L2.7116 7.61388L2.71158 7.61391Z" fill="#EFEFF4" stroke="#D9D9D9" stroke-width="0.666667"/>
<g clip-path="url(#clip1_1656_3214)">
<path d="M15.5 9.33351C15.5 11.266 13.933 12.8335 12 12.8335C10.067 12.8335 8.5 11.266 8.5 9.33351C8.5 7.40001 10.067 5.83301 12 5.83301C13.933 5.83301 15.5 7.40001 15.5 9.33351V9.33351ZM14.701 12.9235C13.948 13.492 13.014 13.8335 12 13.8335C10.985 13.8335 10.0505 13.491 9.2965 12.9225C7.2605 13.819 6 16.6105 6 17.833H18C18 16.6215 16.7 13.83 14.701 12.9235V12.9235Z" fill="#111111" fill-opacity="0.4"/>
</g>
</g>
<defs>
<clipPath id="clip0_1656_3214">
<rect width="24" height="24" fill="white" transform="translate(0 0.5)"/>
</clipPath>
<clipPath id="clip1_1656_3214">
<rect x="6" y="5.83301" width="12" height="12" rx="4.2" fill="white"/>
</clipPath>
</defs>
</svg>
